<svg xmlns="http://www.w3.org/2000/svg" xmlns:xlink="http://www.w3.org/1999/xlink" width="500" zoomAndPan="magnify" viewBox="0 0 375 374.999991" height="500" preserveAspectRatio="xMidYMid meet" version="1.0"><defs><g/><clipPath id="b2f31e64a8"><path d="M 116.613281 56 L 338 56 L 338 319 L 116.613281 319 Z M 116.613281 56 " clip-rule="nonzero"/></clipPath></defs><g clip-path="url(#b2f31e64a8)"><path fill="#807766" d="M 337.105469 317.8125 C 332.761719 315.929688 328.441406 313.972656 324.144531 311.960938 C 322.636719 310.976562 321.1875 309.871094 319.75 308.8125 C 316.453125 306.386719 313.226562 303.867188 310.054688 301.28125 C 306.859375 298.675781 303.707031 296 300.734375 293.144531 C 299.558594 292.019531 298.40625 290.863281 297.347656 289.625 C 296.328125 288.429688 295.496094 287.097656 294.621094 285.792969 C 291.847656 281.664062 289.078125 277.53125 286.449219 273.308594 C 285.304688 271.464844 284.175781 269.605469 283.15625 267.691406 C 282.179688 265.839844 281.523438 263.871094 280.671875 261.964844 C 279.566406 259.476562 278.25 257.054688 276.59375 254.886719 C 275.984375 254.085938 275.332031 253.316406 274.605469 252.621094 C 274.058594 252.09375 273.390625 251.429688 272.6875 251.117188 C 271.820312 250.730469 271.683594 251.734375 271.707031 252.335938 C 271.753906 253.429688 271.960938 254.527344 272.164062 255.601562 C 272.777344 258.847656 273.632812 262.0625 274.652344 265.207031 C 273.269531 264.964844 271.824219 264.941406 270.441406 264.902344 C 268.632812 264.847656 266.820312 264.855469 265.011719 264.875 C 263.40625 264.890625 261.808594 264.824219 260.207031 264.804688 C 259.511719 264.792969 257.59375 264.679688 257.882812 265.902344 C 258.003906 266.414062 258.558594 266.800781 258.945312 267.101562 C 259.863281 267.808594 260.851562 268.425781 261.835938 269.027344 C 263.933594 270.3125 266.132812 271.421875 268.347656 272.480469 C 272.898438 274.652344 277.585938 276.550781 282.058594 278.886719 C 284.65625 280.242188 287.117188 281.828125 289.398438 283.667969 C 291.414062 285.296875 293.308594 287.074219 295.3125 288.714844 C 295.550781 289.050781 295.792969 289.378906 296.046875 289.699219 C 296.941406 290.824219 297.941406 291.867188 298.957031 292.882812 C 301.722656 295.640625 304.6875 298.199219 307.691406 300.695312 C 310.847656 303.316406 314.066406 305.859375 317.347656 308.328125 C 317.695312 308.589844 318.042969 308.851562 318.394531 309.113281 C 317.902344 308.890625 317.40625 308.683594 316.902344 308.496094 C 309.425781 304.835938 302.042969 300.992188 294.777344 296.957031 C 290.84375 294.773438 286.855469 292.578125 283.144531 290.023438 C 283.117188 289.980469 283.09375 289.933594 283.046875 289.894531 C 277.539062 284.890625 270.980469 281.160156 265.066406 276.671875 C 261.933594 274.292969 258.839844 271.847656 255.839844 269.300781 C 254.796875 268.414062 253.808594 267.480469 252.863281 266.507812 C 252.859375 266.5 252.859375 266.488281 252.855469 266.480469 C 250.722656 262.632812 249.308594 258.394531 248.128906 254.171875 C 246.765625 249.28125 245.753906 244.292969 245.003906 239.273438 C 244.582031 236.445312 244.242188 233.601562 244.007812 230.75 C 244.074219 230.667969 244.121094 230.574219 244.125 230.445312 C 244.1875 228.519531 244.558594 226.605469 244.929688 224.722656 C 245.417969 222.246094 245.984375 219.785156 246.539062 217.324219 C 247.574219 212.746094 248.542969 208.191406 249.089844 203.53125 C 249.632812 198.929688 250.902344 194.390625 251.988281 189.898438 C 253.183594 184.953125 254.425781 179.984375 255.070312 174.929688 C 255.554688 171.132812 255.390625 167.289062 255.140625 163.484375 C 254.824219 158.617188 254.285156 153.761719 253.585938 148.933594 C 252.910156 144.269531 252.101562 139.601562 250.882812 135.042969 C 250.398438 133.222656 249.738281 131.472656 249.1875 129.675781 C 248.511719 127.476562 248.035156 125.21875 247.640625 122.953125 C 246.917969 118.839844 246.492188 114.6875 246.140625 110.527344 C 246.058594 109.578125 246.101562 108.5 245.859375 107.574219 C 245.75 107.164062 245.324219 106.816406 244.929688 107.195312 C 244.722656 107.394531 244.738281 107.722656 244.71875 107.988281 C 244.554688 110.050781 243.734375 111.808594 242.90625 113.683594 C 241.328125 117.265625 240.140625 120.972656 239.28125 124.792969 C 237.847656 131.171875 237.238281 137.546875 237.722656 144.074219 C 238.210938 150.667969 239.515625 157.171875 240.90625 163.625 C 242.3125 170.148438 243.910156 176.675781 244.628906 183.320312 C 245.308594 189.59375 245.179688 195.902344 244.605469 202.179688 C 244.09375 207.761719 243.203125 213.308594 242.773438 218.898438 C 242.4375 223.273438 242.667969 227.699219 243.074219 232.0625 C 243.554688 237.238281 244.339844 242.390625 245.417969 247.476562 C 246.429688 252.269531 247.691406 257.046875 249.464844 261.617188 C 249.734375 262.304688 250.015625 262.984375 250.3125 263.660156 C 249.871094 263.128906 249.441406 262.59375 249.019531 262.046875 C 246.613281 258.914062 244.394531 255.585938 242.644531 252.042969 C 241.769531 250.273438 241.191406 248.421875 240.476562 246.589844 C 239.710938 244.621094 238.816406 242.699219 237.753906 240.875 C 236.101562 238.042969 234.007812 235.539062 231.71875 233.203125 C 230.699219 232.164062 229.660156 231.152344 228.65625 230.097656 C 227.679688 229.074219 226.71875 228.164062 225.5 227.421875 C 222.652344 225.695312 219.398438 224.664062 216.277344 223.570312 C 213.214844 222.496094 209.957031 221.476562 207.273438 219.597656 C 206.738281 219.226562 206.25 218.808594 205.808594 218.328125 C 202.3125 214.832031 199.214844 210.78125 197.59375 206.0625 C 197.097656 204.621094 196.808594 203.175781 196.648438 201.714844 C 196.691406 198.554688 196.8125 195.398438 197.402344 192.285156 C 197.777344 190.28125 198.320312 188.289062 199.136719 186.421875 C 199.5625 185.445312 200.058594 184.503906 200.640625 183.613281 C 201.242188 182.683594 201.976562 181.859375 202.632812 180.96875 C 205.421875 177.171875 207.011719 172.726562 208.84375 168.433594 C 209.675781 166.488281 210.570312 164.550781 211.757812 162.789062 C 213.019531 160.917969 214.152344 159.03125 215.0625 156.957031 C 216.585938 153.492188 217.667969 149.839844 218.605469 146.179688 C 218.835938 145.269531 218.132812 144.953125 217.46875 145.53125 C 216.710938 146.195312 216.058594 147.007812 215.390625 147.761719 C 213.148438 150.304688 210.949219 152.890625 208.597656 155.332031 C 206.308594 157.707031 203.53125 159.570312 201.359375 162.054688 C 200.183594 163.398438 199.246094 164.925781 198.679688 166.625 C 197.945312 168.828125 197.96875 171.085938 198.058594 173.378906 C 198.207031 177.148438 198.226562 180.921875 198.125 184.691406 C 198.113281 185.175781 198.101562 185.664062 198.089844 186.148438 C 198.089844 186.167969 198.097656 186.179688 198.101562 186.199219 C 197.691406 187.171875 197.34375 188.171875 197.054688 189.1875 C 197.179688 186.765625 197.125 184.363281 196.492188 181.976562 C 195.554688 178.457031 194.28125 175.015625 193.078125 171.578125 C 191.757812 167.792969 190.398438 164.007812 189.300781 160.152344 C 188.753906 158.226562 188.316406 156.273438 187.71875 154.363281 C 187.015625 152.109375 186.175781 149.902344 185.207031 147.746094 C 183.34375 143.582031 180.960938 139.695312 178.082031 136.164062 C 178.058594 136.117188 178.023438 136.074219 177.980469 136.035156 C 177.808594 135.824219 177.640625 135.609375 177.464844 135.402344 C 176.71875 134.519531 175.957031 133.652344 175.191406 132.789062 C 175.179688 132.738281 175.167969 132.6875 175.136719 132.632812 C 173.847656 130.4375 172.09375 128.53125 170.554688 126.515625 C 169.511719 125.152344 168.519531 123.742188 167.6875 122.242188 C 167.695312 122.117188 167.644531 121.992188 167.507812 121.882812 C 167.496094 121.875 167.488281 121.867188 167.480469 121.859375 C 166.996094 120.949219 166.574219 120.007812 166.242188 119.019531 C 165.417969 116.570312 164.988281 114.039062 164.964844 111.453125 C 164.933594 108.398438 165.359375 105.363281 165.800781 102.347656 C 166.644531 96.574219 167.40625 90.800781 167.472656 84.957031 C 167.511719 81.519531 167.320312 78.085938 167.03125 74.660156 C 166.792969 71.890625 166.484375 69.125 165.984375 66.390625 C 165.632812 64.445312 165.179688 62.511719 164.511719 60.644531 C 164.164062 59.664062 163.738281 58.710938 163.328125 57.753906 C 163.097656 57.203125 162.796875 56.113281 162.054688 56.070312 C 161.382812 56.03125 160.996094 56.882812 160.710938 57.359375 C 160.144531 58.300781 159.605469 59.269531 158.871094 60.097656 C 157.835938 61.265625 156.582031 62.199219 155.671875 63.484375 C 154.191406 65.578125 153.746094 68.128906 153.277344 70.589844 C 152.761719 73.300781 151.984375 75.964844 151.574219 78.691406 C 151.179688 81.339844 151.335938 83.957031 151.890625 86.574219 C 152.535156 89.628906 153.179688 92.679688 153.789062 95.742188 C 154.558594 99.640625 155.207031 103.664062 156.753906 107.347656 C 157.660156 109.5 158.875 111.535156 160.050781 113.546875 C 161.441406 115.925781 162.910156 118.289062 164.644531 120.441406 C 165.25 121.191406 165.894531 121.917969 166.644531 122.527344 C 166.910156 123.027344 167.191406 123.523438 167.5 124.003906 C 167.871094 124.597656 168.265625 125.171875 168.671875 125.734375 C 165.894531 122.796875 163.085938 119.882812 160.296875 116.953125 C 159.144531 115.746094 157.964844 114.550781 156.871094 113.289062 C 155.386719 111.566406 154.089844 109.683594 152.878906 107.761719 C 150.382812 103.792969 148.234375 99.601562 146.226562 95.367188 C 143.976562 90.628906 141.6875 85.941406 139.097656 81.375 C 136.453125 76.710938 133.667969 72.152344 131.265625 67.351562 C 130.417969 65.65625 129.609375 63.929688 128.710938 62.257812 C 128.363281 61.617188 127.863281 61.082031 127.117188 61.566406 C 126.398438 62.035156 126 63.023438 125.683594 63.777344 C 125.128906 65.082031 124.746094 66.457031 124.453125 67.84375 C 123.734375 71.300781 123.542969 75 124.414062 78.449219 C 124.902344 80.386719 125.820312 81.992188 126.910156 83.644531 C 128.136719 85.515625 129.371094 87.390625 130.707031 89.183594 C 132.535156 91.628906 134.601562 93.722656 137.117188 95.464844 C 138.566406 96.46875 139.871094 97.539062 140.84375 99.023438 C 141.820312 100.511719 142.691406 102.046875 143.78125 103.464844 C 146.621094 107.15625 150.324219 110.09375 153.945312 112.980469 C 155.539062 114.253906 157.152344 115.511719 158.703125 116.84375 C 158.730469 116.863281 158.761719 116.871094 158.789062 116.890625 C 161 119.222656 163.226562 121.539062 165.445312 123.863281 C 168.394531 126.957031 171.332031 130.058594 174.179688 133.242188 C 174.476562 133.574219 174.769531 133.910156 175.0625 134.246094 C 172.222656 132.453125 169.464844 130.511719 166.832031 128.4375 C 163.652344 125.933594 160.980469 122.878906 157.859375 120.304688 C 156.8125 119.441406 155.710938 118.625 154.527344 117.964844 C 153.144531 116.90625 151.730469 115.890625 150.34375 114.84375 C 149.300781 114.054688 148.269531 113.253906 147.257812 112.433594 C 146.402344 111.738281 145.589844 110.976562 144.691406 110.34375 C 143.460938 109.480469 142.078125 108.855469 140.863281 107.964844 C 139.984375 107.320312 139.191406 106.5625 138.460938 105.753906 C 137.742188 104.953125 137.105469 104.128906 136.226562 103.488281 C 133.015625 101.136719 128.632812 101.6875 124.992188 102.472656 C 123.917969 102.703125 122.863281 103 121.777344 103.160156 C 120.875 103.292969 119.964844 103.339844 119.054688 103.378906 C 118.308594 103.410156 116.613281 103.34375 116.847656 104.550781 C 116.949219 105.074219 117.421875 105.539062 117.761719 105.917969 C 118.144531 106.34375 118.550781 106.714844 119.027344 107.035156 C 120.121094 107.769531 121.378906 108.265625 122.605469 108.726562 C 125.785156 109.917969 129.089844 110.765625 132.355469 111.6875 C 133.78125 112.09375 135.210938 112.496094 136.609375 112.984375 C 137.914062 113.4375 139.078125 114.140625 140.351562 114.671875 C 142.582031 115.601562 144.9375 116.195312 147.273438 116.773438 C 149.535156 117.335938 151.921875 117.714844 153.976562 118.855469 C 154.082031 118.9375 154.191406 119.011719 154.292969 119.09375 C 154.375 119.15625 154.460938 119.1875 154.542969 119.203125 C 158.003906 121.304688 160.703125 124.460938 163.671875 127.160156 C 167.003906 130.195312 170.820312 132.785156 174.617188 135.195312 C 175.460938 135.734375 176.316406 136.253906 177.179688 136.757812 C 179.023438 139.039062 180.71875 141.417969 182.164062 144.011719 C 184.445312 148.109375 186.183594 152.507812 187.394531 157.035156 C 186.265625 155.167969 185.109375 153.3125 183.917969 151.484375 C 182.542969 149.375 181.148438 147.246094 179.472656 145.355469 C 177.632812 143.28125 175.53125 141.445312 173.320312 139.777344 C 169.164062 136.640625 164.5625 133.964844 159.460938 132.75 C 153.707031 131.382812 147.609375 131.3125 141.789062 132.296875 C 138.972656 132.769531 136.167969 133.464844 133.414062 134.207031 C 132.132812 134.554688 130.644531 134.867188 129.503906 135.585938 C 128.839844 136.003906 128.574219 136.785156 129.355469 137.257812 C 129.734375 137.488281 130.199219 137.578125 130.625 137.6875 C 131.394531 137.882812 132.164062 138.078125 132.933594 138.269531 C 137.863281 139.496094 142.792969 140.726562 147.699219 142.054688 C 152.511719 143.359375 157.226562 144.882812 161.894531 146.632812 C 166.183594 148.242188 170.421875 149.964844 174.6875 151.625 C 176.65625 152.394531 178.582031 153.164062 180.417969 154.226562 C 182.617188 155.496094 184.742188 156.972656 186.585938 158.722656 C 187.253906 159.355469 187.902344 160.03125 188.402344 160.808594 C 188.425781 160.839844 188.449219 160.867188 188.472656 160.890625 C 189.160156 163.257812 189.898438 165.605469 190.703125 167.945312 C 191.988281 171.679688 193.339844 175.390625 194.546875 179.148438 C 194.988281 180.523438 195.421875 181.90625 195.734375 183.3125 C 196.105469 184.957031 196.117188 186.644531 196.050781 188.324219 C 195.871094 192.726562 195.082031 197.164062 195.511719 201.574219 C 195.9375 205.945312 197.871094 210.089844 200.398438 213.632812 C 201.765625 215.546875 203.316406 217.316406 204.972656 218.980469 C 205.867188 221.796875 206.914062 224.535156 208.324219 227.136719 C 209.625 229.546875 211.132812 231.808594 212.769531 234.003906 C 217.234375 239.988281 221.597656 246.046875 226.195312 251.929688 C 228.25 254.558594 230.261719 257.214844 232.21875 259.917969 C 233.597656 261.824219 234.976562 263.785156 236.75 265.328125 C 236.222656 265.0625 235.691406 264.800781 235.167969 264.527344 C 233.433594 263.628906 231.703125 262.707031 230.070312 261.636719 C 227.890625 260.203125 226.023438 258.335938 224.296875 256.390625 C 219.511719 251.003906 215.566406 244.925781 210.890625 239.441406 C 209.628906 237.964844 208.320312 236.519531 206.945312 235.144531 C 205.664062 233.859375 204.285156 232.675781 202.996094 231.398438 C 200.378906 228.816406 197.992188 226.003906 195.757812 223.085938 C 192.605469 218.96875 189.742188 214.632812 187.105469 210.167969 C 186.964844 209.929688 186.828125 209.679688 186.675781 209.445312 C 186.6875 207.445312 186.554688 205.402344 186.234375 203.40625 C 186.246094 203.371094 186.261719 203.335938 186.261719 203.292969 C 186.3125 201.324219 186.566406 199.410156 186.988281 197.488281 C 187.53125 195.007812 188.171875 192.546875 188.445312 190.019531 C 188.722656 187.441406 188.65625 184.847656 188.363281 182.277344 C 188.109375 180.066406 187.816406 177.832031 186.390625 176.03125 C 185.148438 174.460938 183.296875 173.742188 181.441406 174.390625 C 181.40625 174.28125 181.378906 174.164062 181.335938 174.054688 C 181.042969 173.300781 180.558594 172.859375 179.910156 172.410156 C 179.335938 172.015625 178.777344 171.585938 178.152344 171.277344 C 176.523438 170.472656 174.785156 170.746094 173.148438 171.398438 C 171.925781 171.886719 170.785156 172.492188 169.480469 172.746094 C 168.464844 172.945312 167.429688 172.941406 166.402344 172.914062 C 164.210938 172.859375 162.046875 172.988281 160.039062 173.964844 C 158.296875 174.8125 157.027344 176.285156 156.054688 177.929688 C 155.535156 178.8125 155.082031 179.734375 154.625 180.652344 C 154.085938 181.726562 153.441406 182.773438 153.144531 183.949219 C 152.601562 186.09375 153.300781 188.105469 153.34375 190.246094 C 153.378906 192.125 152.078125 193.75 152.261719 195.667969 C 152.328125 196.363281 152.578125 196.957031 152.941406 197.476562 C 151.96875 198.011719 151.085938 198.867188 150.679688 199.878906 C 150.222656 201.027344 150.722656 201.957031 151.722656 202.554688 C 153.179688 203.421875 154.957031 203.792969 156.5625 204.285156 C 157.941406 204.707031 159.308594 205.152344 160.691406 205.5625 C 163.695312 206.453125 166.847656 207.355469 170.003906 207.429688 C 172.527344 207.488281 175.042969 207.796875 177.542969 208.144531 C 179.9375 208.476562 182.347656 208.808594 184.710938 209.3125 C 185.074219 209.515625 185.429688 209.738281 185.769531 209.972656 C 186.417969 210.917969 186.949219 211.96875 187.550781 212.945312 C 188.976562 215.261719 190.46875 217.542969 192.035156 219.769531 C 194.03125 222.617188 196.148438 225.390625 198.421875 228.027344 C 199.59375 229.386719 200.8125 230.710938 202.085938 231.980469 C 203.429688 233.316406 204.867188 234.546875 206.203125 235.886719 C 211.480469 241.167969 215.703125 247.347656 220.296875 253.199219 C 222.265625 255.703125 224.3125 258.1875 226.683594 260.320312 C 228.195312 261.679688 229.851562 262.796875 231.617188 263.800781 C 236.179688 266.40625 240.984375 268.59375 245.730469 270.835938 C 247.40625 271.628906 249.082031 272.421875 250.757812 273.214844 C 245.589844 271.179688 240.417969 269.144531 235.242188 267.128906 C 233.269531 266.363281 231.203125 265.703125 229.375 264.628906 C 227.226562 263.367188 225.265625 261.796875 223.351562 260.210938 C 221.414062 258.605469 219.574219 256.84375 217.558594 255.332031 C 213.320312 252.15625 208.015625 250.835938 203.53125 248.066406 C 200.617188 246.265625 198.179688 243.835938 195.367188 241.898438 C 191.117188 238.960938 186.226562 236.589844 181.03125 236.121094 C 176.109375 235.675781 171.300781 236.796875 166.5625 237.992188 C 164.296875 238.566406 161.984375 238.957031 159.71875 239.550781 C 159.246094 239.675781 158.507812 239.808594 158.230469 240.277344 C 157.902344 240.832031 158.429688 241.246094 158.886719 241.4375 C 159.679688 241.769531 160.546875 241.894531 161.359375 242.167969 C 162.332031 242.496094 163.28125 242.894531 164.222656 243.304688 C 166.515625 244.304688 168.773438 245.386719 171.078125 246.363281 C 174.640625 247.867188 178.355469 248.800781 182.015625 250.007812 C 186.066406 251.339844 190.074219 252.824219 194 254.5 C 197.878906 256.152344 201.753906 257.957031 205.277344 260.289062 C 207.042969 261.457031 208.683594 262.742188 210.5625 263.742188 C 212.65625 264.863281 214.859375 265.773438 217.089844 266.585938 C 221.3125 268.117188 225.675781 269.21875 229.914062 270.707031 C 231.421875 271.238281 232.867188 271.910156 234.363281 272.464844 C 235.875 273.023438 237.417969 273.5 238.96875 273.949219 C 245.949219 275.976562 253.113281 277.59375 260.28125 278.792969 C 261.1875 278.945312 262.09375 279.089844 263.003906 279.179688 C 263.152344 279.253906 263.300781 279.328125 263.449219 279.402344 C 268.875 282.164062 274.289062 285.054688 279.289062 288.542969 C 280.855469 289.632812 282.363281 290.796875 283.972656 291.828125 C 286.015625 293.140625 288.109375 294.375 290.214844 295.589844 C 297.082031 299.542969 304.085938 303.28125 311.183594 306.839844 C 308.585938 306.257812 305.953125 305.800781 303.359375 305.175781 C 301.566406 304.746094 299.789062 304.25 298.039062 303.675781 C 296.640625 303.214844 295.261719 302.765625 293.824219 302.453125 C 290.875 301.808594 287.863281 301.5 284.867188 301.203125 C 281.152344 300.835938 277.433594 300.5 273.738281 299.957031 C 269.859375 299.386719 266.0625 298.539062 262.289062 297.484375 C 255.394531 295.554688 248.324219 292.953125 241.0625 293.203125 C 237.195312 293.332031 233.386719 294.484375 229.65625 295.421875 C 226.277344 296.265625 222.910156 297.007812 219.4375 297.320312 C 218.824219 297.375 218.746094 298.128906 219.296875 298.351562 C 221.433594 299.230469 223.765625 299.691406 226.003906 300.230469 C 229.234375 301.003906 232.46875 301.753906 235.671875 302.636719 C 238.605469 303.445312 241.589844 304.316406 244.324219 305.675781 C 245.296875 306.160156 246.253906 306.710938 247.042969 307.464844 C 248.125 308.503906 249.34375 309.355469 250.65625 310.085938 C 253.925781 311.898438 257.546875 313.09375 261.132812 314.101562 C 264.910156 315.160156 268.753906 315.984375 272.617188 316.671875 C 277.167969 317.488281 281.730469 317.910156 286.351562 317.664062 C 290.457031 317.449219 294.515625 316.769531 298.519531 315.886719 C 302.339844 315.039062 306.121094 313.988281 310 313.417969 C 314.484375 312.753906 318.984375 312.894531 323.4375 313.742188 C 324.695312 313.980469 325.945312 314.265625 327.191406 314.574219 C 327.238281 314.585938 327.28125 314.582031 327.324219 314.582031 C 328.550781 315.144531 329.773438 315.707031 331.003906 316.261719 C 332.855469 317.09375 334.710938 317.914062 336.574219 318.722656 C 337.191406 318.988281 337.726562 318.082031 337.105469 317.8125 Z M 275.566406 255.261719 C 277.167969 257.308594 278.441406 259.617188 279.527344 261.972656 C 280.425781 263.921875 281.078125 265.96875 282.066406 267.875 C 283.003906 269.679688 284.050781 271.429688 285.117188 273.160156 C 287.121094 276.414062 289.222656 279.609375 291.34375 282.785156 C 290.695312 282.203125 290.070312 281.59375 289.464844 280.972656 C 287.59375 279.050781 286.152344 276.839844 284.671875 274.617188 C 282.949219 272.039062 281.296875 269.402344 279.929688 266.613281 C 278.617188 263.933594 277.78125 261.078125 276.132812 258.5625 C 275.519531 257.628906 274.832031 256.753906 274.144531 255.871094 C 273.734375 255.34375 273.320312 254.800781 272.984375 254.214844 C 272.949219 253.992188 272.914062 253.769531 272.882812 253.546875 C 272.832031 253.179688 272.789062 252.8125 272.769531 252.441406 C 273.0625 252.65625 273.347656 252.890625 273.617188 253.136719 C 274.328125 253.785156 274.972656 254.507812 275.566406 255.261719 Z M 272.765625 251.855469 C 272.773438 251.84375 272.78125 251.863281 272.765625 251.855469 Z M 269.6875 265.9375 C 271.4375 265.972656 273.300781 265.949219 275.019531 266.359375 C 275.410156 267.515625 275.828125 268.683594 276.28125 269.839844 C 274.9375 268.65625 273.007812 268.074219 271.347656 267.621094 C 268.996094 266.980469 266.582031 266.625 264.203125 266.09375 C 263.964844 266.039062 263.703125 265.988281 263.441406 265.925781 C 263.75 265.929688 264.054688 265.9375 264.359375 265.933594 C 266.136719 265.917969 267.910156 265.898438 269.6875 265.9375 Z M 258.902344 265.652344 C 258.910156 265.644531 258.914062 265.652344 258.914062 265.664062 C 258.886719 265.640625 258.929688 265.628906 258.902344 265.652344 Z M 258.753906 265.957031 C 258.753906 265.957031 258.773438 265.953125 258.796875 265.949219 C 258.78125 265.960938 258.765625 265.96875 258.753906 265.957031 Z M 260.011719 266.589844 C 259.714844 266.378906 259.417969 266.164062 259.152344 265.910156 C 259.144531 265.902344 259.136719 265.890625 259.128906 265.882812 C 259.332031 265.863281 259.535156 265.855469 259.738281 265.851562 C 260.632812 265.84375 261.53125 265.875 262.425781 265.902344 C 263.015625 266.128906 263.679688 266.246094 264.25 266.371094 C 265.714844 266.695312 267.195312 266.949219 268.664062 267.257812 C 270.238281 267.585938 271.8125 267.960938 273.324219 268.523438 C 274.472656 268.953125 275.667969 269.515625 276.515625 270.433594 C 277.390625 272.582031 278.421875 274.671875 279.746094 276.546875 C 277.394531 275.425781 275 274.390625 272.636719 273.316406 C 268.3125 271.347656 263.90625 269.347656 260.015625 266.585938 Z M 285.488281 279.617188 C 284.363281 278.925781 283.207031 278.289062 282.03125 277.683594 C 279.601562 275.253906 278.164062 271.796875 276.957031 268.640625 C 275.585938 265.054688 274.5 261.347656 273.65625 257.601562 C 273.453125 256.714844 273.265625 255.824219 273.105469 254.925781 C 273.765625 255.933594 274.605469 256.847656 275.292969 257.808594 C 276.066406 258.882812 276.753906 260.015625 277.328125 261.210938 C 278.03125 262.671875 278.53125 264.21875 279.203125 265.695312 C 280.511719 268.5625 282.152344 271.273438 283.882812 273.90625 C 285.308594 276.078125 286.703125 278.335938 288.445312 280.273438 C 289.523438 281.464844 290.6875 282.597656 291.914062 283.644531 C 292.292969 284.210938 292.671875 284.777344 293.050781 285.34375 C 293.097656 285.410156 293.140625 285.476562 293.183594 285.542969 C 290.726562 283.433594 288.273438 281.328125 285.488281 279.617188 Z M 245.867188 118.132812 C 246.425781 122.546875 247.109375 127.046875 248.597656 131.257812 C 249.96875 135.128906 250.851562 139.148438 251.589844 143.183594 C 252.480469 148.070312 253.140625 153 253.628906 157.941406 C 254.039062 162.09375 254.367188 166.28125 254.324219 170.460938 C 254.277344 174.824219 253.390625 179.121094 252.441406 183.363281 C 251.890625 185.828125 251.289062 188.28125 250.695312 190.738281 C 251.128906 185.847656 251.632812 180.957031 251.289062 176.042969 C 251.125 173.6875 250.632812 171.378906 250.464844 169.019531 C 250.28125 166.429688 250.226562 163.828125 250.183594 161.230469 C 250.101562 156.152344 250.234375 151.03125 249.789062 145.96875 C 249.558594 143.335938 248.808594 140.839844 247.796875 138.402344 C 246.375 134.984375 244.460938 131.742188 243.261719 128.234375 C 242.199219 125.113281 242.894531 121.546875 243.578125 118.421875 C 244.085938 116.109375 244.875 113.765625 245.183594 111.398438 C 245.386719 113.644531 245.582031 115.894531 245.867188 118.132812 Z M 241.976562 118.953125 C 242.785156 116.519531 243.910156 114.230469 244.851562 111.855469 C 244.539062 113.800781 243.925781 115.730469 243.492188 117.625 C 242.851562 120.402344 242.253906 123.332031 242.5625 126.191406 C 242.71875 127.621094 243.214844 128.898438 243.773438 130.210938 C 244.519531 131.953125 245.347656 133.65625 246.148438 135.371094 C 247.53125 138.3125 248.921875 141.375 249.378906 144.621094 C 249.671875 146.714844 249.714844 148.847656 249.769531 150.957031 C 249.839844 153.675781 249.855469 156.398438 249.890625 159.121094 C 249.949219 163.976562 250.035156 168.800781 250.765625 173.605469 C 251.714844 179.832031 250.824219 186.175781 250.292969 192.425781 C 249.832031 194.351562 249.378906 196.273438 248.96875 198.210938 C 248.101562 202.28125 247.777344 206.421875 246.953125 210.5 C 246.324219 213.617188 245.585938 216.710938 244.890625 219.816406 C 245.230469 217.191406 245.566406 214.570312 245.917969 211.949219 C 246.300781 209.078125 246.691406 206.210938 247.097656 203.34375 C 247.554688 200.105469 247.953125 196.886719 247.953125 193.605469 C 247.957031 190.535156 247.6875 187.476562 247.269531 184.4375 C 246.800781 181.046875 246.144531 177.695312 245.859375 174.285156 C 245.5625 170.703125 245.527344 167.101562 245.597656 163.507812 C 245.632812 161.757812 245.714844 160.015625 245.515625 158.269531 C 245.339844 156.773438 245.027344 155.296875 244.640625 153.84375 C 244.191406 152.171875 243.644531 150.53125 243.132812 148.875 C 242.675781 147.386719 242.398438 145.847656 241.925781 144.371094 C 241.007812 141.484375 239.296875 138.910156 238.667969 135.949219 C 238.675781 135.792969 238.679688 135.636719 238.6875 135.480469 C 239.035156 129.914062 240.214844 124.246094 241.976562 118.953125 Z M 244.714844 210.71875 C 245.402344 204.960938 246.074219 199.195312 246.148438 193.386719 C 246.234375 186.914062 245.476562 180.539062 244.226562 174.195312 C 241.804688 161.894531 238.152344 149.519531 238.628906 136.871094 C 239.238281 139.003906 240.324219 140.964844 241.164062 143.046875 C 241.703125 144.378906 241.988281 145.75 242.355469 147.132812 C 242.722656 148.519531 243.175781 149.882812 243.605469 151.253906 C 244.585938 154.398438 245.433594 157.621094 245.394531 160.941406 C 245.355469 164.550781 245.242188 168.140625 245.425781 171.746094 C 245.765625 178.324219 247.378906 184.738281 247.644531 191.324219 C 247.898438 197.609375 246.753906 203.785156 245.917969 209.988281 C 245.375 214.003906 244.847656 218.023438 244.339844 222.042969 C 244.332031 222.09375 244.355469 222.125 244.386719 222.144531 C 244.175781 223.136719 243.972656 224.128906 243.78125 225.125 C 243.761719 225.238281 243.738281 225.355469 243.71875 225.472656 C 243.710938 225.195312 243.699219 224.917969 243.695312 224.644531 C 243.601562 219.964844 244.160156 215.359375 244.714844 210.71875 Z M 218.308594 146.199219 C 218.265625 146.273438 218.289062 146.226562 218.308594 146.199219 Z M 217.097656 147.429688 C 217.132812 147.390625 217.167969 147.351562 217.207031 147.3125 C 217.179688 147.40625 217.15625 147.5 217.128906 147.59375 C 216.910156 148.40625 216.683594 149.21875 216.441406 150.027344 C 215.847656 152.023438 215.179688 154.003906 214.371094 155.925781 C 213.496094 157.988281 212.453125 159.980469 211.160156 161.8125 C 210 163.453125 209.097656 165.25 208.289062 167.085938 C 206.5 171.132812 205.0625 175.355469 202.648438 179.09375 C 202.074219 179.980469 201.429688 180.804688 200.796875 181.640625 C 200.824219 181.460938 200.855469 181.277344 200.878906 181.09375 C 201.378906 179.855469 201.800781 178.589844 201.917969 177.214844 C 202.132812 174.699219 202.324219 172.261719 203.171875 169.859375 C 203.636719 168.53125 204.269531 167.238281 205.140625 166.128906 C 206.085938 164.925781 207.261719 163.898438 208.265625 162.742188 C 210.316406 160.367188 212.097656 157.769531 213.351562 154.882812 C 214.148438 153.039062 214.894531 151.152344 215.496094 149.230469 C 216.027344 148.625 216.554688 148.023438 217.097656 147.429688 Z M 214.324219 150.570312 C 214.574219 150.289062 214.820312 150.003906 215.070312 149.722656 C 214.605469 151.121094 214.066406 152.503906 213.5 153.863281 C 212.199219 156.992188 210.4375 159.800781 208.230469 162.378906 C 207.222656 163.558594 206.050781 164.601562 205.070312 165.796875 C 204.308594 166.734375 203.714844 167.796875 203.253906 168.90625 C 202.320312 171.160156 201.871094 173.609375 201.71875 176.035156 C 201.625 177.472656 201.421875 178.804688 200.984375 180.148438 C 201.074219 179.199219 201.125 178.25 201.164062 177.304688 C 201.246094 175.4375 201.128906 173.601562 201.097656 171.738281 C 201.054688 169.441406 201.757812 167.113281 202.628906 165.003906 C 203.304688 163.363281 204.460938 161.992188 205.570312 160.625 C 206.578125 159.386719 207.671875 158.167969 208.582031 156.839844 C 210.601562 154.851562 212.464844 152.699219 214.328125 150.570312 Z M 200.707031 164.714844 C 202.371094 161.925781 205.066406 160.109375 207.417969 157.960938 C 206.828125 158.707031 206.210938 159.425781 205.617188 160.152344 C 204.578125 161.429688 203.390625 162.734375 202.679688 164.230469 C 201.78125 166.109375 201.144531 168.230469 200.910156 170.300781 C 200.695312 172.199219 200.984375 174.164062 200.941406 176.078125 C 200.90625 177.761719 200.835938 179.476562 200.605469 181.15625 C 200.363281 181.765625 200.097656 182.363281 199.835938 182.96875 C 199.609375 183.300781 199.390625 183.640625 199.1875 183.992188 C 199.226562 181.835938 199.265625 179.683594 199.230469 177.523438 C 199.160156 173.195312 198.375 168.621094 200.707031 164.710938 Z M 127.433594 62.714844 C 127.492188 62.640625 127.578125 62.566406 127.644531 62.503906 C 127.796875 62.808594 127.96875 63.105469 128.125 63.410156 C 128.546875 64.222656 128.945312 65.039062 129.351562 65.859375 C 131.609375 70.421875 134.078125 74.820312 136.640625 79.214844 C 139.339844 83.847656 141.910156 88.558594 144.164062 93.425781 C 146.050781 97.503906 148.019531 101.546875 150.261719 105.445312 C 151.136719 106.964844 152.054688 108.449219 153.035156 109.890625 C 151.25 108.289062 149.523438 106.589844 148.015625 104.742188 C 146.660156 103.082031 145.550781 101.113281 144.695312 99.152344 C 143.941406 97.417969 143.632812 95.433594 142.632812 93.816406 C 141.683594 92.28125 140.121094 91.351562 138.863281 90.109375 C 137.707031 88.96875 136.722656 87.652344 135.777344 86.339844 C 133.503906 83.191406 131.398438 79.851562 129.699219 76.359375 C 128.796875 74.503906 128.277344 72.5625 127.769531 70.566406 C 127.242188 68.507812 126.574219 66.109375 126.773438 63.894531 C 126.957031 63.488281 127.160156 63.0625 127.433594 62.710938 Z M 149.316406 107.757812 C 147.589844 106.207031 145.9375 104.570312 144.53125 102.722656 C 143.488281 101.351562 142.660156 99.859375 141.710938 98.429688 C 139.953125 95.769531 137.078125 94.421875 134.800781 92.289062 C 132.132812 89.785156 130.132812 86.625 128.132812 83.589844 C 127.003906 81.878906 125.972656 80.265625 125.453125 78.261719 C 125 76.511719 124.863281 74.695312 124.910156 72.894531 C 124.980469 70.117188 125.4375 67.164062 126.496094 64.558594 C 126.488281 66.078125 126.820312 67.636719 127.136719 69.058594 C 127.585938 71.070312 128.042969 73.167969 128.832031 75.078125 C 130.261719 78.535156 132.335938 81.792969 134.433594 84.878906 C 135.449219 86.367188 136.503906 87.839844 137.679688 89.210938 C 138.832031 90.554688 140.289062 91.53125 141.503906 92.808594 C 142.875 94.242188 143.261719 96.070312 143.914062 97.882812 C 144.65625 99.949219 145.71875 101.925781 146.941406 103.746094 C 148.167969 105.570312 149.785156 107.148438 151.363281 108.664062 C 152.101562 109.378906 152.863281 110.074219 153.628906 110.753906 C 153.988281 111.261719 154.359375 111.761719 154.738281 112.253906 C 152.902344 110.792969 151.066406 109.328125 149.316406 107.757812 Z M 117.796875 104.535156 L 117.796875 104.539062 C 117.804688 104.570312 117.785156 104.550781 117.796875 104.535156 Z M 146.042969 115.375 C 143.839844 114.804688 141.605469 114.191406 139.5625 113.160156 C 138.519531 112.632812 137.5 112.164062 136.386719 111.796875 C 133.414062 110.808594 130.367188 110.0625 127.367188 109.175781 C 124.730469 108.394531 121.773438 107.65625 119.476562 106.070312 C 119.011719 105.75 118.628906 105.332031 118.265625 104.898438 C 118.226562 104.851562 118.117188 104.664062 118.023438 104.527344 C 118.167969 104.507812 118.339844 104.464844 118.449219 104.457031 C 118.792969 104.4375 119.132812 104.425781 119.476562 104.410156 C 120.375 104.371094 121.269531 104.296875 122.15625 104.15625 C 122.710938 104.070312 123.257812 103.960938 123.800781 103.84375 C 124.765625 104.75 125.988281 105.402344 127.207031 105.882812 C 129.550781 106.8125 132.023438 106.816406 134.460938 107.324219 C 135.234375 107.488281 136.007812 107.703125 136.710938 108.082031 C 137.363281 108.429688 137.894531 108.917969 138.476562 109.363281 C 140.261719 110.738281 142.515625 111.359375 144.386719 112.601562 C 145.8125 113.542969 147.109375 114.753906 148.363281 115.957031 C 147.589844 115.765625 146.816406 115.574219 146.042969 115.375 Z M 148.839844 116.074219 C 147.738281 115.050781 146.625 114.039062 145.464844 113.082031 C 143.675781 111.601562 141.460938 110.882812 139.484375 109.71875 C 138.183594 108.953125 137.214844 107.875 135.75 107.390625 C 133.546875 106.660156 131.171875 106.757812 128.9375 106.171875 C 127.238281 105.726562 125.449219 104.980469 124.117188 103.777344 C 125.441406 103.484375 126.757812 103.15625 128.113281 102.996094 C 129.976562 102.777344 131.921875 102.761719 133.722656 103.367188 C 134.640625 103.679688 135.503906 104.171875 136.222656 104.828125 C 137.042969 105.582031 137.6875 106.511719 138.480469 107.296875 C 139.679688 108.480469 141.046875 109.398438 142.5 110.234375 C 144.117188 111.15625 145.453125 112.328125 146.902344 113.492188 C 148.226562 114.554688 149.582031 115.578125 150.945312 116.589844 C 150.53125 116.488281 150.113281 116.390625 149.699219 116.285156 C 149.414062 116.214844 149.125 116.144531 148.839844 116.074219 Z M 166.421875 83.050781 C 166.457031 86.433594 166.257812 89.796875 165.925781 93.148438 C 165.867188 92.507812 165.804688 91.871094 165.734375 91.230469 C 165.480469 88.882812 165.0625 86.578125 165.007812 84.214844 C 164.957031 82.007812 165.054688 79.800781 165.011719 77.59375 C 164.996094 76.730469 164.910156 75.871094 164.917969 75.007812 C 164.925781 73.980469 165.011719 72.957031 165.09375 71.933594 C 165.175781 70.90625 165.273438 69.867188 165.339844 68.832031 C 166.070312 73.527344 166.371094 78.335938 166.421875 83.050781 Z M 163.226562 60.203125 C 163.910156 61.9375 164.382812 63.746094 164.757812 65.566406 C 164.894531 66.234375 165.019531 66.90625 165.136719 67.582031 C 165.09375 68.726562 165 69.875 164.90625 71.011719 C 164.742188 73 164.652344 74.933594 164.730469 76.925781 C 164.816406 79.074219 164.710938 81.226562 164.730469 83.375 C 164.753906 85.699219 165.074219 87.929688 165.355469 90.230469 C 165.535156 91.683594 165.667969 93.140625 165.773438 94.601562 C 165.558594 96.550781 165.304688 98.5 165.023438 100.445312 C 164.246094 105.792969 163.304688 111.253906 164.476562 116.617188 C 164.621094 117.269531 164.789062 117.910156 164.984375 118.542969 C 164.554688 117.507812 164.175781 116.445312 163.816406 115.394531 C 163.082031 113.253906 162.382812 111.011719 162.210938 108.746094 C 162.023438 106.320312 162.320312 103.863281 162.527344 101.449219 C 162.761719 98.675781 162.984375 95.894531 162.8125 93.113281 C 162.539062 88.582031 161.175781 84.214844 160.9375 79.675781 C 160.734375 75.789062 160.992188 71.867188 161.25 67.992188 C 161.480469 64.574219 161.710938 61.128906 162.175781 57.734375 C 162.558594 58.542969 162.902344 59.375 163.226562 60.203125 Z M 158.859375 109.265625 C 157.140625 106.058594 156.265625 102.632812 155.53125 99.089844 C 155.011719 96.589844 154.535156 94.082031 154.023438 91.582031 C 153.410156 88.566406 152.511719 85.527344 152.394531 82.4375 C 152.304688 80.027344 152.785156 77.691406 153.320312 75.355469 C 153.644531 73.945312 153.972656 72.53125 154.246094 71.109375 C 154.535156 69.625 154.765625 68.136719 155.25 66.703125 C 155.292969 66.578125 155.339844 66.460938 155.386719 66.339844 C 155.484375 69.371094 155.59375 72.40625 155.476562 75.4375 C 155.414062 77.046875 155.253906 78.621094 154.960938 80.203125 C 154.667969 81.761719 154.683594 83.375 154.78125 84.953125 C 155.199219 91.933594 157.460938 98.585938 158.761719 105.417969 C 159.0625 107.003906 159.328125 108.570312 159.75 110.132812 C 159.886719 110.640625 160.03125 111.148438 160.179688 111.652344 C 159.730469 110.859375 159.289062 110.066406 158.859375 109.265625 Z M 163.15625 116.574219 C 162.320312 115.304688 161.53125 114.003906 160.765625 112.683594 C 160.113281 110.613281 159.527344 108.503906 159.191406 106.359375 C 158.671875 103.027344 157.777344 99.742188 156.992188 96.46875 C 156.179688 93.0625 155.449219 89.644531 155.132812 86.152344 C 154.984375 84.480469 154.902344 82.777344 155.089844 81.105469 C 155.261719 79.621094 155.578125 78.175781 155.675781 76.679688 C 155.910156 73.042969 155.746094 69.390625 155.628906 65.75 C 156.214844 64.457031 157.03125 63.359375 158.089844 62.351562 C 158.621094 61.847656 159.167969 61.351562 159.65625 60.800781 C 160.34375 60.011719 160.878906 59.125 161.414062 58.230469 C 161.5625 57.984375 161.792969 57.703125 161.949219 57.425781 C 161.535156 60.386719 161.320312 63.382812 161.101562 66.359375 C 160.804688 70.402344 160.539062 74.472656 160.632812 78.527344 C 160.679688 80.699219 160.929688 82.863281 161.304688 85 C 161.691406 87.222656 162.203125 89.417969 162.433594 91.664062 C 162.710938 94.402344 162.605469 97.136719 162.394531 99.871094 C 162.191406 102.449219 161.867188 105.035156 161.898438 107.621094 C 161.929688 110.125 162.597656 112.558594 163.378906 114.917969 C 163.847656 116.351562 164.351562 117.8125 164.972656 119.207031 C 164.320312 118.351562 163.726562 117.449219 163.15625 116.578125 Z M 162.824219 134.867188 C 165.207031 135.769531 167.457031 137.078125 169.589844 138.453125 C 173.65625 141.070312 177.3125 144.203125 180.246094 148.023438 C 179.652344 147.542969 179.039062 147.09375 178.40625 146.679688 C 178.402344 146.664062 178.402344 146.648438 178.390625 146.632812 C 175.632812 143.421875 171.769531 141.964844 167.769531 140.945312 C 165.925781 140.476562 164.050781 140.074219 162.253906 139.4375 C 160.105469 138.675781 158.085938 137.523438 156.207031 136.242188 C 154.417969 135.023438 152.683594 133.761719 150.789062 132.71875 C 152.375 132.757812 153.957031 132.875 155.527344 133.085938 C 158.007812 133.425781 160.480469 133.980469 162.824219 134.867188 Z M 146.808594 132.777344 C 147.945312 132.710938 149.082031 132.695312 150.21875 132.710938 C 154.011719 134.703125 157.210938 137.621094 161.1875 139.308594 C 164.695312 140.792969 168.570312 141.15625 172.109375 142.574219 C 174.195312 143.40625 176.085938 144.601562 177.640625 146.207031 C 176.355469 145.449219 174.984375 144.835938 173.515625 144.421875 C 170.671875 143.628906 167.695312 143.535156 164.769531 143.273438 C 160.949219 142.925781 157.285156 142.082031 153.660156 140.835938 C 150.5625 139.773438 147.570312 138.445312 144.503906 137.304688 C 143.832031 137.054688 143.148438 136.855469 142.46875 136.621094 C 141.484375 136.28125 140.542969 135.835938 139.59375 135.410156 C 138.554688 134.945312 137.539062 134.613281 136.472656 134.519531 C 136.808594 134.441406 137.144531 134.363281 137.480469 134.285156 C 140.566406 133.5625 143.640625 132.964844 146.8125 132.777344 Z M 129.871094 136.339844 C 129.847656 136.324219 129.832031 136.316406 129.835938 136.3125 C 129.851562 136.296875 129.863281 136.308594 129.871094 136.339844 Z M 129.871094 136.605469 L 129.871094 136.617188 C 129.875 136.625 129.839844 136.628906 129.871094 136.605469 Z M 178.585938 152.074219 C 176.992188 151.324219 175.308594 150.75 173.667969 150.101562 C 171.644531 149.304688 169.621094 148.496094 167.597656 147.703125 C 163.097656 145.9375 158.574219 144.191406 153.960938 142.746094 C 149.070312 141.210938 144.074219 139.984375 139.105469 138.726562 C 137.003906 138.195312 134.898438 137.671875 132.792969 137.148438 C 132.070312 136.96875 131.34375 136.789062 130.621094 136.601562 C 130.449219 136.554688 130.277344 136.511719 130.113281 136.449219 C 130.519531 136.214844 130.96875 136.054688 131.410156 135.90625 C 132.730469 135.453125 134.089844 135.09375 135.449219 134.765625 C 136.960938 134.664062 138.316406 135.121094 139.710938 135.75 C 141.078125 136.371094 142.453125 136.859375 143.867188 137.355469 C 146.722656 138.355469 149.488281 139.613281 152.335938 140.648438 C 155.824219 141.910156 159.390625 142.929688 163.082031 143.363281 C 166.039062 143.707031 169.046875 143.738281 171.96875 144.324219 C 175.40625 145.015625 178.355469 146.667969 180.9375 148.964844 C 181.042969 149.109375 181.152344 149.25 181.257812 149.398438 C 182.933594 151.820312 184.511719 154.316406 186.042969 156.839844 C 185.691406 156.550781 185.335938 156.273438 184.980469 156.003906 C 182.996094 154.484375 180.851562 153.140625 178.585938 152.074219 Z M 181.324219 206.605469 C 178.964844 205.695312 176.535156 204.96875 174.078125 204.371094 C 171.605469 203.769531 169.101562 203.328125 166.644531 202.648438 C 164.320312 202.007812 162.023438 201.257812 159.78125 200.367188 C 158.105469 199.703125 156.34375 198.988281 154.871094 197.933594 C 154.101562 197.382812 153.433594 196.636719 153.3125 195.667969 C 153.246094 195.113281 153.339844 194.554688 153.480469 194.011719 C 154.949219 195.484375 156.777344 196.695312 158.585938 197.664062 C 161.050781 198.984375 163.71875 199.457031 166.433594 199.996094 C 167.929688 200.296875 169.425781 200.597656 170.902344 200.976562 C 172.378906 201.355469 173.789062 201.9375 175.261719 202.316406 C 176.535156 202.648438 177.835938 202.71875 179.144531 202.796875 C 180.203125 202.863281 181.386719 202.929688 182.226562 203.660156 C 182.753906 204.117188 183.117188 204.792969 183.492188 205.371094 C 183.933594 206.054688 184.359375 206.753906 184.773438 207.453125 C 184.972656 207.785156 185.15625 208.125 185.351562 208.460938 C 184.074219 207.714844 182.691406 207.136719 181.324219 206.605469 Z M 187.335938 190.5 C 187.164062 191.878906 186.875 193.242188 186.570312 194.59375 C 185.882812 191.257812 186.046875 187.769531 186.308594 184.398438 C 186.429688 182.871094 186.589844 181.347656 186.683594 179.820312 C 186.699219 179.554688 186.722656 179.28125 186.738281 179 C 187.179688 180.425781 187.296875 181.972656 187.425781 183.4375 C 187.632812 185.785156 187.628906 188.15625 187.335938 190.5 Z M 185.921875 177.183594 C 186.15625 177.546875 186.335938 177.933594 186.496094 178.328125 C 186.507812 178.929688 186.441406 179.542969 186.402344 180.097656 C 186.296875 181.65625 186.132812 183.210938 186.019531 184.769531 C 185.761719 188.226562 185.636719 191.796875 186.429688 195.195312 C 186.265625 195.921875 186.09375 196.644531 185.9375 197.371094 C 185.914062 197.472656 185.898438 197.570312 185.878906 197.671875 C 185.621094 196.789062 185.414062 195.886719 185.207031 194.996094 C 184.863281 193.488281 184.53125 191.96875 184.339844 190.433594 C 184.144531 188.859375 184.070312 187.253906 184.160156 185.667969 C 184.273438 183.621094 184.933594 181.605469 184.835938 179.554688 C 184.765625 178.050781 184.25 176.699219 183.695312 175.328125 C 184.589844 175.617188 185.371094 176.3125 185.925781 177.183594 Z M 183.382812 175.246094 C 183.902344 176.519531 184.417969 177.773438 184.546875 179.164062 C 184.738281 181.207031 184.074219 183.21875 183.921875 185.253906 C 183.695312 188.332031 184.136719 191.363281 184.796875 194.363281 C 185.078125 195.652344 185.375 196.957031 185.773438 198.21875 C 185.65625 198.824219 185.554688 199.429688 185.472656 200.039062 C 185.332031 199.597656 185.171875 199.160156 184.984375 198.734375 C 184.664062 198.003906 184.316406 197.316406 184.078125 196.550781 C 183.503906 194.714844 183.203125 192.792969 182.945312 190.886719 C 182.679688 188.9375 182.496094 186.980469 182.257812 185.027344 C 182.050781 183.324219 181.675781 181.65625 181.679688 179.929688 C 181.679688 178.492188 181.886719 176.894531 181.675781 175.417969 C 182.265625 175.179688 182.839844 175.136719 183.382812 175.246094 Z M 176.304688 171.816406 C 177.558594 171.910156 178.871094 172.824219 179.808594 173.617188 C 180.40625 174.125 180.558594 174.984375 180.625 175.722656 C 180.71875 176.707031 180.667969 177.703125 180.644531 178.6875 C 180.621094 179.695312 180.597656 180.710938 180.703125 181.714844 C 180.785156 182.457031 180.953125 183.191406 181.0625 183.933594 C 181.308594 185.636719 181.464844 187.355469 181.664062 189.0625 C 181.890625 190.992188 182.140625 192.921875 182.546875 194.824219 C 182.722656 195.640625 182.929688 196.457031 183.199219 197.25 C 183.390625 197.800781 183.640625 198.3125 183.882812 198.832031 C 183.230469 198.082031 182.652344 197.257812 182.140625 196.417969 C 181.492188 195.351562 180.949219 194.214844 180.601562 193.015625 C 180.304688 191.996094 180.097656 190.949219 179.804688 189.929688 C 179.230469 187.902344 178.535156 185.910156 177.914062 183.898438 C 177.15625 181.457031 176.515625 178.980469 175.667969 176.566406 C 175.148438 175.085938 174.53125 173.648438 173.980469 172.1875 C 174.730469 171.925781 175.496094 171.757812 176.304688 171.816406 Z M 173.730469 172.273438 C 174.210938 173.535156 174.738281 174.769531 175.199219 176.039062 C 176.074219 178.4375 176.722656 180.902344 177.46875 183.34375 C 178.101562 185.429688 178.820312 187.492188 179.433594 189.585938 C 180.074219 191.773438 180.457031 193.96875 181.582031 195.984375 C 182.292969 197.253906 183.164062 198.496094 184.183594 199.546875 C 184.632812 200.671875 184.945312 201.863281 185.152344 203.085938 C 184.195312 201.597656 182.835938 200.390625 181.621094 199.105469 C 179.757812 197.128906 178.324219 194.851562 177.148438 192.410156 C 176.027344 190.082031 175.167969 187.652344 174.269531 185.234375 C 173.867188 184.148438 173.445312 183.074219 172.957031 182.023438 C 172.390625 180.808594 171.605469 179.6875 171.078125 178.460938 C 170.640625 177.4375 170.75 176.546875 171.03125 175.503906 C 171.230469 174.765625 171.3125 174.054688 171.242188 173.320312 C 172.074219 172.996094 172.894531 172.585938 173.730469 172.273438 Z M 169.957031 173.71875 C 170.304688 173.644531 170.648438 173.535156 170.988281 173.414062 C 171.046875 174.183594 170.917969 174.90625 170.707031 175.6875 C 170.519531 176.382812 170.414062 177.0625 170.574219 177.777344 C 170.839844 178.964844 171.640625 179.996094 172.191406 181.066406 C 172.769531 182.1875 173.269531 183.347656 173.722656 184.523438 C 175.535156 189.238281 177.097656 194.167969 180.386719 198.117188 C 181.972656 200.019531 184.082031 201.597656 185.265625 203.804688 C 185.390625 204.671875 185.472656 205.542969 185.527344 206.414062 C 185.269531 205.804688 185.03125 205.195312 184.777344 204.585938 C 184.355469 203.589844 183.679688 202.691406 183.03125 201.835938 C 181.367188 199.648438 179.402344 197.769531 177.601562 195.707031 C 176.578125 194.539062 175.6875 193.265625 174.835938 191.96875 C 173.941406 190.605469 173.164062 189.113281 171.9375 188.011719 C 170.9375 187.117188 169.742188 186.511719 168.582031 185.855469 C 167.304688 185.128906 166.132812 184.28125 165.207031 183.128906 C 163.214844 180.648438 162.191406 177.582031 160.425781 174.964844 C 161.578125 174.371094 162.875 174.058594 164.1875 173.976562 C 166.121094 173.847656 168.042969 174.136719 169.957031 173.722656 Z M 155.488281 181.265625 C 156.335938 179.574219 157.152344 177.78125 158.476562 176.402344 C 158.984375 175.867188 159.570312 175.441406 160.199219 175.089844 C 161.730469 177.363281 162.710938 179.96875 164.238281 182.25 C 164.972656 183.339844 165.824219 184.316406 166.890625 185.097656 C 168.015625 185.917969 169.289062 186.484375 170.460938 187.230469 C 171.96875 188.191406 172.914062 189.464844 173.867188 190.953125 C 174.695312 192.238281 175.527344 193.527344 176.464844 194.738281 C 178.167969 196.941406 180.261719 198.816406 182.023438 200.976562 C 182.90625 202.0625 183.855469 203.210938 184.449219 204.488281 C 184.753906 205.148438 185.015625 205.828125 185.289062 206.503906 C 182.929688 203.15625 180.074219 200.117188 176.503906 198.074219 C 173.75 196.496094 170.824219 195.242188 167.980469 193.847656 C 165.109375 192.445312 162.53125 190.78125 160.140625 188.65625 C 158.214844 186.941406 156.453125 185.03125 154.433594 183.425781 C 154.730469 182.683594 155.128906 181.984375 155.488281 181.265625 Z M 154.394531 190.574219 C 154.425781 189.628906 154.238281 188.691406 154.105469 187.761719 C 153.957031 186.695312 153.871094 185.601562 154.085938 184.539062 C 154.148438 184.242188 154.234375 183.957031 154.335938 183.675781 C 156.113281 185.101562 157.6875 186.773438 159.367188 188.3125 C 161.460938 190.226562 163.707031 191.972656 166.238281 193.273438 C 169.152344 194.773438 172.167969 196.058594 175.066406 197.585938 C 177.648438 198.945312 179.882812 200.550781 181.859375 202.703125 C 183.199219 204.167969 184.453125 205.738281 185.574219 207.382812 C 185.585938 207.707031 185.597656 208.027344 185.605469 208.347656 C 184.804688 206.933594 183.960938 205.539062 183.035156 204.210938 C 181.765625 202.390625 179.601562 202.605469 177.621094 202.4375 C 176.046875 202.300781 174.660156 201.835938 173.171875 201.351562 C 171.679688 200.871094 170.148438 200.503906 168.617188 200.175781 C 165.816406 199.578125 162.816406 199.273438 160.167969 198.140625 C 157.796875 197.121094 155.382812 195.589844 153.5625 193.71875 C 153.609375 193.558594 153.660156 193.398438 153.714844 193.242188 C 154.007812 192.347656 154.363281 191.527344 154.394531 190.574219 Z M 153.652344 198.277344 C 154.210938 198.789062 154.875 199.210938 155.542969 199.578125 C 157.429688 200.613281 159.441406 201.460938 161.503906 202.191406 C 161.074219 202.136719 160.636719 202.101562 160.195312 202.105469 C 159.40625 202.109375 158.625 202.191406 157.832031 202.136719 C 156.679688 202.054688 155.578125 201.761719 154.589844 201.148438 C 153.75 200.625 153 199.964844 152.222656 199.351562 C 152.679688 198.871094 153.257812 198.46875 153.652344 198.273438 Z M 172.089844 206.472656 C 170.992188 206.386719 169.886719 206.40625 168.789062 206.296875 C 167.335938 206.152344 165.894531 205.847656 164.476562 205.5 C 161.65625 204.816406 158.910156 203.890625 156.132812 203.054688 C 155.214844 202.777344 154.289062 202.511719 153.390625 202.171875 C 152.835938 201.957031 152.109375 201.710938 151.722656 201.230469 C 151.320312 200.730469 151.578125 200.101562 152.050781 199.546875 C 152.84375 200.167969 153.601562 200.84375 154.457031 201.375 C 155.355469 201.933594 156.347656 202.242188 157.398438 202.359375 C 158.21875 202.453125 159.027344 202.402344 159.847656 202.375 C 160.976562 202.339844 162.074219 202.5 163.167969 202.765625 C 163.183594 202.769531 163.195312 202.761719 163.210938 202.761719 C 165.03125 203.335938 166.875 203.832031 168.695312 204.265625 C 171.382812 204.90625 174.089844 205.398438 176.75 206.175781 C 178.097656 206.570312 179.441406 207.011719 180.761719 207.515625 C 177.882812 207.046875 174.96875 206.695312 172.089844 206.472656 Z M 210.425781 228.699219 C 208.832031 226.046875 207.566406 223.300781 206.550781 220.386719 C 207.441406 221.042969 208.425781 221.589844 209.445312 222.0625 C 211.085938 223.757812 212.621094 225.5625 214.398438 227.113281 C 216.390625 228.855469 218.679688 230.101562 221.039062 231.273438 C 223.410156 232.449219 225.835938 233.621094 227.761719 235.476562 C 229.554688 237.203125 230.6875 239.449219 231.78125 241.652344 C 234.15625 246.421875 236.140625 251.421875 238.902344 255.992188 C 240.40625 258.484375 242.042969 260.921875 243.824219 263.21875 C 245.457031 265.324219 247.265625 267.332031 249.390625 268.953125 C 250.617188 269.890625 251.984375 270.597656 253.261719 271.457031 C 254.59375 272.351562 255.863281 273.332031 257.09375 274.363281 C 257.699219 274.875 258.300781 275.398438 258.886719 275.929688 C 257.015625 274.945312 255.148438 273.960938 253.269531 272.980469 C 251.902344 272.265625 250.53125 271.554688 249.160156 270.84375 C 247.546875 268.90625 245.585938 267.1875 243.546875 265.75 C 242.046875 264.691406 240.660156 263.636719 239.523438 262.175781 C 238.445312 260.789062 237.597656 259.238281 236.746094 257.707031 C 235.039062 254.636719 233.367188 251.261719 230.855469 248.746094 C 229.976562 247.863281 228.96875 247.125 227.964844 246.386719 C 226.296875 245.164062 224.644531 243.914062 223.015625 242.636719 C 220.605469 240.75 218.320312 238.769531 216.085938 236.6875 C 215.75 236.230469 215.414062 235.773438 215.070312 235.320312 C 213.441406 233.167969 211.816406 231.015625 210.421875 228.699219 Z M 234.640625 261.445312 C 232.578125 258.71875 230.621094 255.921875 228.527344 253.222656 C 226.46875 250.570312 224.386719 247.9375 222.375 245.246094 C 220.546875 242.800781 218.769531 240.320312 216.960938 237.859375 C 218.464844 239.238281 220 240.578125 221.605469 241.859375 C 223.230469 243.148438 224.867188 244.429688 226.535156 245.664062 C 227.6875 246.515625 228.878906 247.324219 229.957031 248.265625 C 232.550781 250.527344 234.238281 253.761719 235.894531 256.71875 C 237.542969 259.660156 239.082031 262.703125 241.792969 264.824219 C 242.726562 265.558594 243.742188 266.179688 244.675781 266.921875 C 245.574219 267.636719 246.433594 268.402344 247.25 269.207031 C 247.675781 269.628906 248.097656 270.058594 248.5 270.503906 C 245.957031 269.191406 243.40625 267.902344 240.824219 266.671875 C 239.601562 266.089844 238.414062 265.414062 237.390625 264.519531 C 236.347656 263.617188 235.46875 262.539062 234.640625 261.445312 Z M 183.558594 237.546875 C 186.363281 238.136719 188.960938 239.359375 191.460938 240.730469 C 193.230469 241.699219 194.925781 242.800781 196.519531 244.039062 C 197.78125 245.015625 198.980469 246.066406 200.242188 247.046875 C 201.851562 248.292969 203.5625 249.371094 205.375 250.308594 C 207.695312 251.511719 210.128906 252.46875 212.488281 253.589844 C 214.8125 254.691406 216.84375 256.039062 218.792969 257.710938 C 220.726562 259.367188 222.648438 261.042969 224.65625 262.609375 C 226.425781 263.992188 228.269531 265.363281 230.316406 266.316406 C 231.089844 266.675781 231.902344 266.957031 232.695312 267.265625 C 237.113281 268.972656 241.519531 270.707031 245.925781 272.4375 C 244.179688 272.359375 242.429688 272.214844 240.699219 272.011719 C 237.503906 271.628906 234.421875 270.339844 231.597656 268.847656 C 230.167969 268.09375 228.777344 267.253906 227.46875 266.300781 C 226.3125 265.460938 225.292969 264.464844 224.175781 263.574219 C 222.804688 262.476562 221.316406 261.632812 219.726562 260.941406 C 219.742188 260.886719 219.738281 260.828125 219.675781 260.792969 C 217.808594 259.722656 215.980469 258.546875 214.273438 257.238281 C 213.222656 256.429688 212.328125 255.421875 211.210938 254.703125 C 209.875 253.851562 208.367188 253.273438 206.875 252.761719 C 203.214844 251.496094 199.238281 250.867188 195.875 248.871094 C 192.867188 247.089844 190.484375 244.519531 187.929688 242.171875 C 185.285156 239.738281 181.980469 238.625 178.84375 237.074219 C 180.425781 237.082031 182.003906 237.222656 183.558594 237.546875 Z M 175.558594 237.238281 C 176.457031 237.144531 177.363281 237.089844 178.269531 237.078125 C 181.195312 238.566406 184.347656 239.570312 186.941406 241.664062 C 189.601562 243.804688 191.789062 246.449219 194.628906 248.386719 C 197.773438 250.539062 201.414062 251.3125 205 252.425781 C 206.703125 252.953125 208.417969 253.519531 210.011719 254.328125 C 210.695312 254.675781 211.367188 255.074219 211.953125 255.570312 C 212.453125 255.992188 212.90625 256.472656 213.414062 256.890625 C 215.046875 258.238281 216.839844 259.417969 218.664062 260.5 C 215.457031 259.257812 212.140625 258.324219 208.976562 256.964844 C 206.488281 255.890625 204.113281 254.558594 201.597656 253.546875 C 200.160156 252.964844 198.683594 252.566406 197.207031 252.113281 C 195.636719 251.628906 194.105469 251.035156 192.582031 250.421875 C 189.28125 249.097656 186.007812 247.640625 182.578125 246.667969 C 180.765625 246.15625 178.898438 246.03125 177.082031 245.570312 C 175.273438 245.113281 173.566406 244.324219 171.929688 243.441406 C 170.355469 242.589844 168.839844 241.632812 167.273438 240.761719 C 166.429688 240.292969 165.558594 239.835938 164.652344 239.492188 C 168.261719 238.613281 171.871094 237.625 175.558594 237.238281 Z M 159.089844 240.863281 C 159.085938 240.871094 159.085938 240.875 159.082031 240.882812 C 159.074219 240.878906 159.078125 240.871094 159.089844 240.863281 Z M 244.699219 274.398438 C 241.332031 273.554688 237.953125 272.667969 234.695312 271.46875 C 233.234375 270.929688 231.820312 270.269531 230.351562 269.746094 C 228.363281 269.042969 226.34375 268.441406 224.328125 267.828125 C 219.914062 266.484375 215.453125 265.121094 211.351562 262.96875 C 209.46875 261.984375 207.816406 260.734375 206.0625 259.550781 C 204.4375 258.453125 202.722656 257.492188 200.980469 256.59375 C 193.898438 252.945312 186.289062 250.089844 178.648438 247.851562 C 176.714844 247.285156 174.796875 246.730469 172.917969 245.988281 C 170.546875 245.050781 168.242188 243.957031 165.917969 242.914062 C 164.128906 242.109375 162.316406 241.269531 160.402344 240.792969 C 160.25 240.753906 160.070312 240.6875 159.890625 240.621094 C 160.507812 240.457031 161.125 240.296875 161.75 240.164062 C 162.570312 239.988281 163.386719 239.796875 164.203125 239.601562 C 166.660156 240.398438 168.882812 242.039062 171.097656 243.285156 C 172.449219 244.042969 173.835938 244.75 175.292969 245.289062 C 176.882812 245.875 178.476562 246.050781 180.128906 246.359375 C 183.574219 247 186.855469 248.371094 190.082031 249.691406 C 191.738281 250.363281 193.386719 251.050781 195.066406 251.664062 C 196.597656 252.226562 198.175781 252.625 199.722656 253.136719 C 202.355469 254.011719 204.78125 255.328125 207.289062 256.492188 C 210.421875 257.953125 213.695312 258.988281 216.945312 260.144531 C 219.167969 260.9375 221.351562 261.8125 223.273438 263.210938 C 224.28125 263.945312 225.171875 264.808594 226.132812 265.601562 C 227.34375 266.601562 228.660156 267.476562 230.015625 268.269531 C 233.003906 270.019531 236.347656 271.566406 239.789062 272.148438 C 242.046875 272.53125 244.390625 272.695312 246.707031 272.746094 C 247.210938 272.945312 247.71875 273.144531 248.222656 273.34375 C 251.722656 274.71875 255.222656 276.097656 258.722656 277.476562 C 257.765625 277.292969 256.8125 277.09375 255.863281 276.902344 C 252.121094 276.15625 248.398438 275.324219 244.699219 274.398438 Z M 263.4375 278.230469 C 263.425781 278.222656 263.414062 278.214844 263.402344 278.210938 C 263.378906 278.195312 263.363281 278.179688 263.339844 278.167969 C 263.296875 278.152344 263.257812 278.136719 263.21875 278.121094 C 262.175781 277.597656 261.136719 277.074219 260.09375 276.566406 C 259.996094 276.515625 259.902344 276.464844 259.808594 276.414062 C 257.308594 274 254.519531 271.816406 251.535156 270.070312 C 246.492188 267.121094 243.058594 262.027344 239.976562 257.207031 C 237.085938 252.691406 235.011719 247.734375 232.691406 242.914062 C 231.664062 240.777344 230.640625 238.519531 229.171875 236.644531 C 227.609375 234.65625 225.507812 233.273438 223.289062 232.113281 C 220.5625 230.6875 217.726562 229.472656 215.304688 227.53125 C 213.390625 226 211.785156 224.136719 210.101562 222.359375 C 211.019531 222.757812 211.949219 223.113281 212.847656 223.453125 C 216.128906 224.6875 219.515625 225.675781 222.703125 227.148438 C 224.042969 227.761719 225.390625 228.464844 226.511719 229.429688 C 227.574219 230.339844 228.492188 231.453125 229.480469 232.445312 C 231.679688 234.652344 233.855469 236.875 235.613281 239.460938 C 236.710938 241.074219 237.660156 242.785156 238.476562 244.550781 C 239.386719 246.523438 240.003906 248.597656 240.835938 250.597656 C 242.308594 254.144531 244.390625 257.445312 246.617188 260.558594 C 248.640625 263.394531 250.828125 266.21875 253.40625 268.578125 C 256.128906 271.066406 259.070312 273.347656 261.980469 275.617188 C 264.703125 277.738281 267.453125 279.8125 270.3125 281.746094 C 270.558594 281.914062 270.804688 282.082031 271.050781 282.25 C 270.179688 281.761719 269.304688 281.285156 268.425781 280.8125 C 266.777344 279.929688 265.109375 279.074219 263.4375 278.230469 Z M 259.476562 297.777344 C 263.183594 298.847656 266.90625 299.871094 270.710938 300.53125 C 274.421875 301.175781 278.160156 301.601562 281.90625 301.96875 C 285.03125 302.277344 288.171875 302.53125 291.269531 303.039062 C 292.648438 303.265625 294.019531 303.542969 295.363281 303.921875 C 297.019531 304.386719 298.636719 304.996094 300.296875 305.464844 C 304.769531 306.734375 309.519531 307.28125 313.996094 308.609375 C 312.527344 308.414062 311.050781 308.292969 309.578125 308.246094 C 306.890625 308.160156 304.238281 308.539062 301.5625 308.710938 C 298.484375 308.902344 295.421875 308.707031 292.378906 308.222656 C 289.390625 307.746094 286.417969 307.117188 283.53125 306.191406 C 279.152344 304.789062 275.007812 302.800781 270.398438 302.222656 C 268.28125 301.957031 266.144531 301.980469 264.023438 301.785156 C 261.066406 301.515625 258.179688 300.785156 255.375 299.824219 C 252.695312 298.90625 250.152344 297.644531 247.515625 296.609375 C 244.910156 295.589844 242.234375 294.832031 239.492188 294.359375 C 246.242188 293.628906 253.082031 295.929688 259.476562 297.777344 Z M 238.261719 294.523438 C 238.375 294.503906 238.492188 294.492188 238.609375 294.476562 C 241.402344 294.890625 244.128906 295.609375 246.773438 296.605469 C 249.144531 297.496094 251.433594 298.59375 253.789062 299.519531 C 256.570312 300.609375 259.492188 301.445312 262.453125 301.863281 C 264.527344 302.15625 266.613281 302.175781 268.695312 302.320312 C 271.261719 302.503906 273.746094 303.042969 276.1875 303.839844 C 278.175781 304.488281 280.109375 305.285156 282.078125 305.980469 C 284.558594 306.851562 287.101562 307.511719 289.683594 308.011719 C 292.9375 308.644531 296.234375 309.097656 299.554688 309.050781 C 302.375 309.011719 305.167969 308.542969 307.984375 308.492188 C 310.507812 308.449219 313.078125 308.675781 315.570312 309.113281 C 315.832031 309.207031 316.097656 309.300781 316.359375 309.398438 C 316.855469 309.640625 317.355469 309.878906 317.855469 310.121094 C 317.160156 310.160156 316.464844 310.265625 315.796875 310.363281 C 313.863281 310.648438 311.945312 311.0625 310.019531 311.410156 C 307.035156 311.949219 304.089844 312.324219 301.089844 311.765625 C 299.015625 311.378906 296.984375 310.816406 294.902344 310.472656 C 291.183594 309.851562 287.398438 309.6875 283.632812 309.695312 C 279.285156 309.703125 274.945312 309.871094 270.597656 309.835938 C 267.910156 309.816406 265.199219 309.714844 262.5625 309.140625 C 259.152344 308.398438 255.902344 306.941406 252.832031 305.316406 C 251.105469 304.398438 249.425781 303.394531 247.734375 302.414062 C 246.460938 301.675781 245.164062 300.933594 243.773438 300.433594 C 242.652344 300.035156 241.496094 299.945312 240.324219 299.800781 C 238.675781 299.597656 237.03125 299.378906 235.382812 299.148438 C 232.179688 298.699219 228.949219 298.265625 225.792969 297.550781 C 225.679688 297.523438 225.566406 297.496094 225.453125 297.46875 C 226.410156 297.277344 227.359375 297.070312 228.308594 296.839844 C 231.609375 296.035156 234.90625 295.074219 238.261719 294.523438 Z M 313.804688 311.976562 C 309.65625 312.199219 305.617188 313.140625 301.589844 314.09375 C 297.777344 315 293.949219 315.847656 290.054688 316.296875 C 285.292969 316.847656 280.464844 316.832031 275.71875 316.132812 C 271.871094 315.5625 268.039062 314.773438 264.261719 313.835938 C 260.46875 312.894531 256.660156 311.789062 253.105469 310.144531 C 251.644531 309.46875 250.203125 308.699219 248.921875 307.71875 C 247.996094 307.007812 247.226562 306.152344 246.230469 305.527344 C 243.835938 304.027344 241.039062 303.128906 238.351562 302.3125 C 235.121094 301.335938 231.835938 300.542969 228.554688 299.757812 C 226.328125 299.226562 224.074219 298.726562 221.871094 298.089844 C 222.871094 297.949219 223.863281 297.777344 224.855469 297.585938 C 225.777344 297.855469 226.734375 298.023438 227.675781 298.199219 C 229.34375 298.507812 231.019531 298.773438 232.699219 299.023438 C 235.753906 299.480469 238.816406 299.875 241.882812 300.246094 C 243.273438 300.417969 244.5625 300.992188 245.796875 301.636719 C 247.332031 302.441406 248.804688 303.355469 250.304688 304.214844 C 253.632812 306.128906 257.125 307.894531 260.828125 308.972656 C 263.171875 309.652344 265.59375 309.941406 268.03125 310.042969 C 271.78125 310.199219 275.546875 310.070312 279.300781 310.011719 C 283.722656 309.945312 288.152344 309.886719 292.550781 310.402344 C 294.972656 310.6875 297.328125 311.214844 299.699219 311.746094 C 302.015625 312.265625 304.253906 312.464844 306.628906 312.195312 C 310.371094 311.773438 314.042969 310.621094 317.808594 310.40625 C 318.003906 310.394531 318.203125 310.386719 318.402344 310.386719 C 319.976562 311.144531 321.554688 311.894531 323.132812 312.636719 C 320.054688 312.09375 316.941406 311.808594 313.804688 311.980469 Z M 313.804688 311.976562 " fill-opacity="1" fill-rule="nonzero"/></g><g fill="#60795e" fill-opacity="1"><g transform="translate(39.080331, 287.496658)"><g><path d="M 17.546875 16.5 C 13.898438 16.5 10.890625 15.863281 8.515625 14.59375 C 6.140625 13.320312 4.375 11.671875 3.21875 9.640625 C 2.0625 7.617188 1.484375 5.535156 1.484375 3.390625 C 1.484375 1.648438 1.769531 0.0859375 2.34375 -1.296875 C 3.5 -4.023438 5.582031 -6.398438 8.59375 -8.421875 C 11.613281 -10.453125 15.296875 -11.46875 19.640625 -11.46875 C 20.160156 -11.46875 20.691406 -11.4375 21.234375 -11.375 C 21.785156 -11.320312 22.296875 -11.238281 22.765625 -11.125 C 23.398438 -11.175781 24.003906 -11.390625 24.578125 -11.765625 C 25.160156 -12.148438 25.597656 -12.484375 25.890625 -12.765625 C 26.179688 -13.117188 26.410156 -13.484375 26.578125 -13.859375 C 26.753906 -14.234375 26.84375 -14.566406 26.84375 -14.859375 C 26.84375 -15.265625 26.695312 -15.550781 26.40625 -15.71875 C 26.238281 -15.832031 26.15625 -15.953125 26.15625 -16.078125 C 26.15625 -16.484375 26.53125 -16.566406 27.28125 -16.328125 C 28.375 -15.984375 28.921875 -15.289062 28.921875 -14.25 C 28.921875 -13.257812 28.398438 -12.421875 27.359375 -11.734375 C 26.953125 -11.378906 26.472656 -11.128906 25.921875 -10.984375 C 25.378906 -10.835938 24.816406 -10.765625 24.234375 -10.765625 C 26.203125 -10.191406 28 -9.179688 29.625 -7.734375 L 30.0625 -7.90625 C 30.8125 -8.132812 31.648438 -7.988281 32.578125 -7.46875 C 33.503906 -6.945312 34.171875 -6.109375 34.578125 -4.953125 C 34.867188 -4.085938 35.015625 -3.160156 35.015625 -2.171875 C 35.015625 -1.128906 34.851562 -0.117188 34.53125 0.859375 C 34.21875 1.847656 33.710938 2.546875 33.015625 2.953125 C 32.316406 3.359375 31.878906 3.390625 31.703125 3.046875 C 32.109375 2.691406 32.3125 2.285156 32.3125 1.828125 C 32.3125 1.359375 32.148438 0.878906 31.828125 0.390625 C 31.515625 -0.0976562 31.1875 -0.457031 30.84375 -0.6875 C 30.488281 -0.976562 30.109375 -1.3125 29.703125 -1.6875 C 29.304688 -2.070312 28.929688 -2.640625 28.578125 -3.390625 C 28.285156 -3.960938 28.140625 -4.507812 28.140625 -5.03125 C 28.140625 -5.789062 28.375 -6.457031 28.84375 -7.03125 C 25.882812 -9.40625 22.46875 -10.421875 18.59375 -10.078125 C 15.46875 -9.785156 12.832031 -8.957031 10.6875 -7.59375 C 8.539062 -6.238281 6.914062 -4.578125 5.8125 -2.609375 C 4.71875 -0.640625 4.171875 1.414062 4.171875 3.5625 C 4.171875 6.394531 5.097656 8.914062 6.953125 11.125 L 6.78125 10.859375 C 6.375 10.046875 6.171875 9.09375 6.171875 8 C 6.171875 7.300781 6.253906 6.660156 6.421875 6.078125 C 7.179688 4.171875 8.253906 3.21875 9.640625 3.21875 C 10.566406 3.21875 11.320312 3.648438 11.90625 4.515625 C 12.132812 4.804688 12.25 5.125 12.25 5.46875 C 12.25 5.988281 12.015625 6.078125 11.546875 5.734375 C 11.148438 5.441406 10.628906 5.484375 9.984375 5.859375 C 9.347656 6.234375 8.800781 6.769531 8.34375 7.46875 C 8.113281 7.757812 7.910156 8.191406 7.734375 8.765625 C 7.554688 9.347656 7.46875 9.957031 7.46875 10.59375 C 7.46875 10.945312 7.523438 11.351562 7.640625 11.8125 C 8.742188 12.914062 10.078125 13.785156 11.640625 14.421875 C 13.203125 15.054688 15.023438 15.375 17.109375 15.375 C 20.117188 15.375 23.101562 14.632812 26.0625 13.15625 C 29.019531 11.6875 31.882812 9.734375 34.65625 7.296875 C 37.4375 4.867188 40.101562 2.148438 42.65625 -0.859375 C 45.207031 -3.878906 47.609375 -6.96875 49.859375 -10.125 C 52.117188 -13.28125 54.191406 -16.273438 56.078125 -19.109375 C 57.960938 -21.953125 59.597656 -24.382812 60.984375 -26.40625 C 63.878906 -30.695312 66.890625 -34.8125 70.015625 -38.75 C 73.148438 -42.6875 76.484375 -45.867188 80.015625 -48.296875 C 75.960938 -49.628906 71.660156 -51.046875 67.109375 -52.546875 C 62.566406 -54.054688 57.976562 -55.160156 53.34375 -55.859375 C 51.945312 -56.148438 50.613281 -56.320312 49.34375 -56.375 C 49.40625 -56.320312 49.347656 -56.320312 49.171875 -56.375 C 48.421875 -56.5 47.753906 -56.34375 47.171875 -55.90625 C 46.585938 -55.46875 46.179688 -55.078125 45.953125 -54.734375 C 45.546875 -54.035156 45.34375 -53.394531 45.34375 -52.8125 C 45.34375 -52.289062 45.519531 -51.945312 45.875 -51.78125 C 46.15625 -51.664062 46.296875 -51.519531 46.296875 -51.34375 C 46.296875 -51.113281 46.097656 -51 45.703125 -51 C 45.234375 -51 44.691406 -51.171875 44.078125 -51.515625 C 43.472656 -51.859375 43.171875 -52.410156 43.171875 -53.171875 C 43.171875 -53.921875 43.472656 -54.613281 44.078125 -55.25 C 44.691406 -55.882812 45.460938 -56.320312 46.390625 -56.5625 C 41.703125 -56.675781 37.648438 -56.125 34.234375 -54.90625 C 30.816406 -53.6875 28.003906 -52.078125 25.796875 -50.078125 C 23.597656 -48.085938 21.945312 -45.875 20.84375 -43.4375 C 21.082031 -43.4375 21.203125 -43.289062 21.203125 -43 C 21.140625 -41.78125 21.28125 -40.796875 21.625 -40.046875 C 21.976562 -39.296875 22.441406 -38.601562 23.015625 -37.96875 C 23.367188 -38.601562 23.863281 -39.0625 24.5 -39.34375 C 25.132812 -39.632812 25.800781 -39.78125 26.5 -39.78125 C 27.070312 -39.78125 27.5625 -39.695312 27.96875 -39.53125 C 28.957031 -39.175781 29.722656 -38.78125 30.265625 -38.34375 C 30.816406 -37.914062 31.296875 -37.472656 31.703125 -37.015625 C 31.992188 -36.660156 32.425781 -36.335938 33 -36.046875 C 33.582031 -35.765625 34.132812 -35.625 34.65625 -35.625 C 35.46875 -35.625 36.078125 -35.941406 36.484375 -36.578125 C 36.660156 -36.398438 36.75 -36.140625 36.75 -35.796875 C 36.75 -34.921875 36.328125 -34.164062 35.484375 -33.53125 C 34.648438 -32.894531 33.640625 -32.398438 32.453125 -32.046875 C 31.265625 -31.703125 30.085938 -31.53125 28.921875 -31.53125 C 26.835938 -31.53125 25.203125 -32.148438 24.015625 -33.390625 C 22.828125 -34.640625 22.351562 -35.816406 22.59375 -36.921875 L 22.671875 -37.09375 C 21.921875 -37.726562 21.367188 -38.40625 21.015625 -39.125 C 20.671875 -39.851562 20.351562 -40.65625 20.0625 -41.53125 C 19.425781 -39.5 19.109375 -37.585938 19.109375 -35.796875 C 19.109375 -33.421875 19.597656 -31.175781 20.578125 -29.0625 C 21.566406 -26.945312 23.015625 -25.25 24.921875 -23.96875 C 26.835938 -22.695312 29.160156 -22.0625 31.890625 -22.0625 C 34.609375 -22.0625 37.238281 -22.769531 39.78125 -24.1875 C 42.332031 -25.613281 44.390625 -27.554688 45.953125 -30.015625 C 47.515625 -32.472656 48.179688 -35.269531 47.953125 -38.40625 C 47.898438 -39.382812 47.566406 -40.394531 46.953125 -41.4375 C 46.347656 -42.476562 45.46875 -43 44.3125 -43 C 44.019531 -43 43.695312 -42.941406 43.34375 -42.828125 C 43 -42.710938 42.769531 -42.507812 42.65625 -42.21875 C 42.59375 -42.039062 42.476562 -41.953125 42.3125 -41.953125 C 42.019531 -41.953125 41.875 -42.21875 41.875 -42.75 C 41.875 -43.550781 42.175781 -44.210938 42.78125 -44.734375 C 43.394531 -45.253906 44.078125 -45.515625 44.828125 -45.515625 C 45.640625 -45.515625 46.4375 -45.109375 47.21875 -44.296875 C 48 -43.492188 48.414062 -42.078125 48.46875 -40.046875 C 48.644531 -40.566406 48.878906 -41.085938 49.171875 -41.609375 C 49.804688 -42.484375 50.5625 -42.921875 51.4375 -42.921875 C 52.351562 -42.921875 52.957031 -42.484375 53.25 -41.609375 C 53.363281 -41.265625 53.363281 -41.003906 53.25 -40.828125 C 53.132812 -40.660156 52.960938 -40.691406 52.734375 -40.921875 C 52.554688 -41.085938 52.351562 -41.171875 52.125 -41.171875 C 51.664062 -41.171875 51.054688 -40.910156 50.296875 -40.390625 C 50.128906 -40.222656 49.925781 -39.960938 49.6875 -39.609375 C 49.457031 -39.265625 49.285156 -38.863281 49.171875 -38.40625 C 49.285156 -34.863281 48.617188 -31.816406 47.171875 -29.265625 C 45.722656 -26.722656 43.84375 -24.726562 41.53125 -23.28125 C 41.8125 -23.34375 42.066406 -23.382812 42.296875 -23.40625 C 42.535156 -23.4375 42.769531 -23.453125 43 -23.453125 C 44.15625 -23.453125 45.09375 -23.144531 45.8125 -22.53125 C 46.539062 -21.925781 46.90625 -21.28125 46.90625 -20.59375 C 46.90625 -19.832031 46.53125 -19.191406 45.78125 -18.671875 C 45.375 -18.441406 45.054688 -18.367188 44.828125 -18.453125 C 44.597656 -18.546875 44.597656 -18.738281 44.828125 -19.03125 C 45.117188 -19.375 45.101562 -19.804688 44.78125 -20.328125 C 44.46875 -20.847656 44.019531 -21.3125 43.4375 -21.71875 C 42.800781 -22.238281 41.929688 -22.5 40.828125 -22.5 C 40.710938 -22.5 40.566406 -22.5 40.390625 -22.5 C 40.222656 -22.5 40.082031 -22.46875 39.96875 -22.40625 C 37.476562 -21.25 34.84375 -20.671875 32.0625 -20.671875 C 28.519531 -20.671875 25.519531 -21.378906 23.0625 -22.796875 C 20.601562 -24.222656 18.675781 -26.003906 17.28125 -28.140625 C 17.28125 -27.796875 17.222656 -27.394531 17.109375 -26.9375 C 16.765625 -25.832031 16.160156 -24.875 15.296875 -24.0625 C 15.578125 -23.488281 15.71875 -22.878906 15.71875 -22.234375 C 15.71875 -20.785156 15.113281 -19.457031 13.90625 -18.25 C 13.207031 -17.488281 12.191406 -16.832031 10.859375 -16.28125 C 9.523438 -15.738281 8.25 -15.46875 7.03125 -15.46875 C 6.050781 -15.46875 5.242188 -15.695312 4.609375 -16.15625 C 4.203125 -16.445312 3.96875 -16.722656 3.90625 -16.984375 C 3.851562 -17.242188 3.851562 -17.40625 3.90625 -17.46875 C 4.082031 -17.34375 4.34375 -17.28125 4.6875 -17.28125 C 5.382812 -17.28125 6.007812 -17.613281 6.5625 -18.28125 C 7.113281 -18.945312 7.445312 -19.570312 7.5625 -20.15625 C 7.675781 -20.738281 7.847656 -21.347656 8.078125 -21.984375 C 8.304688 -22.617188 8.710938 -23.285156 9.296875 -23.984375 C 10.160156 -25.023438 11.257812 -25.546875 12.59375 -25.546875 C 13.519531 -25.546875 14.273438 -25.253906 14.859375 -24.671875 C 15.429688 -25.367188 15.863281 -26.296875 16.15625 -27.453125 C 16.21875 -27.742188 16.257812 -28.03125 16.28125 -28.3125 C 16.3125 -28.601562 16.328125 -28.867188 16.328125 -29.109375 C 16.328125 -29.628906 16.300781 -30.003906 16.25 -30.234375 C 15.375 -32.316406 14.9375 -34.546875 14.9375 -36.921875 C 14.9375 -38.953125 15.269531 -40.992188 15.9375 -43.046875 C 16.601562 -45.097656 17.632812 -47.023438 19.03125 -48.828125 C 18.789062 -48.765625 18.507812 -48.71875 18.1875 -48.6875 C 17.875 -48.664062 17.570312 -48.65625 17.28125 -48.65625 C 16.53125 -48.65625 15.789062 -48.796875 15.0625 -49.078125 C 14.34375 -49.367188 13.695312 -49.804688 13.125 -50.390625 C 12.945312 -50.328125 12.6875 -50.296875 12.34375 -50.296875 C 11.53125 -50.296875 10.671875 -50.613281 9.765625 -51.25 C 8.867188 -51.894531 8.191406 -52.765625 7.734375 -53.859375 C 7.378906 -54.734375 7.203125 -55.773438 7.203125 -56.984375 C 7.203125 -58.316406 7.40625 -59.59375 7.8125 -60.8125 C 8.21875 -62.03125 8.828125 -62.84375 9.640625 -63.25 C 10.109375 -63.53125 10.457031 -63.640625 10.6875 -63.578125 C 10.914062 -63.523438 11.085938 -63.472656 11.203125 -63.421875 C 10.742188 -63.015625 10.515625 -62.492188 10.515625 -61.859375 C 10.515625 -61.273438 10.6875 -60.707031 11.03125 -60.15625 C 11.375 -59.601562 11.75 -59.1875 12.15625 -58.90625 C 12.625 -58.550781 13.101562 -58.140625 13.59375 -57.671875 C 14.082031 -57.210938 14.53125 -56.582031 14.9375 -55.78125 C 15.226562 -55.082031 15.375 -54.441406 15.375 -53.859375 C 15.375 -52.472656 14.882812 -51.429688 13.90625 -50.734375 C 14.707031 -50.035156 15.773438 -49.6875 17.109375 -49.6875 L 17.640625 -49.6875 C 18.453125 -49.6875 19.289062 -49.832031 20.15625 -50.125 C 22.414062 -52.675781 25.425781 -54.757812 29.1875 -56.375 C 32.957031 -58 37.535156 -58.8125 42.921875 -58.8125 C 44.253906 -58.8125 45.613281 -58.753906 47 -58.640625 C 48.382812 -58.523438 49.800781 -58.351562 51.25 -58.125 C 54.320312 -57.65625 57.664062 -56.898438 61.28125 -55.859375 C 64.90625 -54.816406 68.484375 -53.71875 72.015625 -52.5625 C 75.546875 -51.40625 78.703125 -50.332031 81.484375 -49.34375 C 83.171875 -50.332031 84.878906 -51.113281 86.609375 -51.6875 C 88.347656 -52.269531 90.144531 -52.5625 92 -52.5625 C 93.625 -52.5625 94.851562 -52.210938 95.6875 -51.515625 C 96.53125 -50.816406 96.953125 -50.035156 96.953125 -49.171875 C 96.953125 -48.242188 96.441406 -47.398438 95.421875 -46.640625 C 94.410156 -45.890625 92.835938 -45.546875 90.703125 -45.609375 C 89.140625 -43.296875 87.71875 -40.75 86.4375 -37.96875 C 85.164062 -35.1875 84.019531 -32.40625 83 -29.625 C 81.988281 -26.84375 81.140625 -24.265625 80.453125 -21.890625 C 79.578125 -18.941406 78.632812 -16.132812 77.625 -13.46875 C 76.613281 -10.800781 75.09375 -8.367188 73.0625 -6.171875 C 76.65625 -8.890625 79.941406 -12.015625 82.921875 -15.546875 C 85.898438 -19.078125 88.609375 -22.695312 91.046875 -26.40625 C 92.671875 -28.894531 94.640625 -31.71875 96.953125 -34.875 C 99.265625 -38.03125 101.8125 -41.21875 104.59375 -44.4375 C 107.375 -47.65625 110.253906 -50.664062 113.234375 -53.46875 C 116.222656 -56.28125 119.222656 -58.597656 122.234375 -60.421875 C 125.242188 -62.242188 128.109375 -63.269531 130.828125 -63.5 C 131.179688 -63.5625 131.53125 -63.59375 131.875 -63.59375 C 132.21875 -63.59375 132.535156 -63.59375 132.828125 -63.59375 C 136.191406 -63.59375 138.597656 -62.878906 140.046875 -61.453125 C 141.492188 -60.035156 142.21875 -58.519531 142.21875 -56.90625 C 142.21875 -55.863281 141.925781 -54.890625 141.34375 -53.984375 C 140.769531 -53.085938 139.988281 -52.46875 139 -52.125 L 138.828125 -53 C 140.210938 -53.800781 140.90625 -54.957031 140.90625 -56.46875 C 140.90625 -57.625 140.398438 -58.691406 139.390625 -59.671875 C 138.378906 -60.660156 136.859375 -61.15625 134.828125 -61.15625 C 133.785156 -61.15625 132.597656 -60.984375 131.265625 -60.640625 C 129.179688 -60.054688 126.863281 -58.867188 124.3125 -57.078125 C 121.769531 -55.285156 119.125 -53.140625 116.375 -50.640625 C 113.625 -48.148438 110.929688 -45.5 108.296875 -42.6875 C 105.660156 -39.882812 103.210938 -37.179688 100.953125 -34.578125 C 98.691406 -31.972656 96.765625 -29.6875 95.171875 -27.71875 C 93.578125 -25.75 92.460938 -24.328125 91.828125 -23.453125 C 90.785156 -22.003906 89.46875 -20.265625 87.875 -18.234375 C 86.28125 -16.210938 84.484375 -14.144531 82.484375 -12.03125 C 80.484375 -9.914062 78.382812 -7.945312 76.1875 -6.125 C 73.988281 -4.300781 71.757812 -2.820312 69.5 -1.6875 C 67.238281 -0.5625 65.035156 0 62.890625 0 C 61.734375 0 61.15625 -0.113281 61.15625 -0.34375 C 61.15625 -0.632812 61.53125 -0.953125 62.28125 -1.296875 C 63.039062 -1.648438 63.535156 -1.941406 63.765625 -2.171875 C 64.054688 -2.398438 64.546875 -3.09375 65.234375 -4.25 C 65.929688 -5.414062 66.757812 -6.820312 67.71875 -8.46875 C 68.675781 -10.125 69.660156 -11.847656 70.671875 -13.640625 C 71.679688 -15.429688 72.59375 -17.09375 73.40625 -18.625 C 74.21875 -20.164062 74.828125 -21.398438 75.234375 -22.328125 C 75.578125 -23.023438 76.210938 -24.285156 77.140625 -26.109375 C 78.066406 -27.929688 79.195312 -30.015625 80.53125 -32.359375 C 81.863281 -34.703125 83.269531 -37.078125 84.75 -39.484375 C 86.226562 -41.890625 87.691406 -43.988281 89.140625 -45.78125 C 88.734375 -45.84375 88.269531 -45.929688 87.75 -46.046875 C 87.226562 -46.160156 86.675781 -46.273438 86.09375 -46.390625 L 83.578125 -47.171875 C 81.722656 -45.609375 79.894531 -43.753906 78.09375 -41.609375 C 76.300781 -39.472656 74.632812 -37.285156 73.09375 -35.046875 C 71.5625 -32.816406 70.1875 -30.71875 68.96875 -28.75 C 67.757812 -26.78125 66.78125 -25.191406 66.03125 -23.984375 C 64.289062 -21.023438 62.144531 -17.75 59.59375 -14.15625 C 57.050781 -10.570312 54.1875 -6.984375 51 -3.390625 C 47.8125 0.203125 44.40625 3.503906 40.78125 6.515625 C 37.164062 9.523438 33.390625 11.941406 29.453125 13.765625 C 25.515625 15.585938 21.546875 16.5 17.546875 16.5 Z M 92.34375 -47 C 93.332031 -47.0625 94.113281 -47.320312 94.6875 -47.78125 C 95.269531 -48.238281 95.5625 -48.757812 95.5625 -49.34375 C 95.5625 -49.863281 95.285156 -50.328125 94.734375 -50.734375 C 94.179688 -51.140625 93.269531 -51.34375 92 -51.34375 C 90.894531 -51.28125 89.734375 -50.972656 88.515625 -50.421875 C 87.304688 -49.878906 86.09375 -49.144531 84.875 -48.21875 C 85.863281 -47.863281 86.757812 -47.597656 87.5625 -47.421875 C 88.375 -47.253906 89.273438 -47.144531 90.265625 -47.09375 C 90.671875 -47.550781 91.0625 -47.96875 91.4375 -48.34375 C 91.8125 -48.71875 92.203125 -49.023438 92.609375 -49.265625 L 93.125 -49 C 92.894531 -48.707031 92.664062 -48.382812 92.4375 -48.03125 C 92.207031 -47.6875 91.945312 -47.34375 91.65625 -47 Z M 99.21875 7.203125 C 98 7.203125 96.894531 6.828125 95.90625 6.078125 C 95.15625 5.554688 94.601562 4.773438 94.25 3.734375 C 93.90625 2.691406 93.734375 1.535156 93.734375 0.265625 C 93.734375 -0.773438 93.832031 -1.875 94.03125 -3.03125 C 94.238281 -4.195312 94.519531 -5.390625 94.875 -6.609375 C 95.851562 -9.960938 97.367188 -13.664062 99.421875 -17.71875 C 101.484375 -21.769531 103.84375 -25.878906 106.5 -30.046875 C 109.164062 -34.222656 111.988281 -38.148438 114.96875 -41.828125 C 117.957031 -45.503906 120.867188 -48.644531 123.703125 -51.25 L 124.234375 -50.640625 C 122.316406 -48.328125 120.390625 -45.617188 118.453125 -42.515625 C 116.515625 -39.421875 114.632812 -36.132812 112.8125 -32.65625 C 110.988281 -29.1875 109.28125 -25.695312 107.6875 -22.1875 C 106.09375 -18.6875 104.71875 -15.34375 103.5625 -12.15625 C 103.5 -11.988281 103.28125 -11.382812 102.90625 -10.34375 C 102.53125 -9.300781 102.125 -8.007812 101.6875 -6.46875 C 101.25 -4.9375 100.859375 -3.390625 100.515625 -1.828125 C 100.171875 -0.265625 100 1.097656 100 2.265625 C 100 3.066406 100.113281 3.726562 100.34375 4.25 C 100.570312 4.769531 100.945312 5.03125 101.46875 5.03125 C 101.988281 5.03125 102.6875 4.769531 103.5625 4.25 C 103.957031 3.96875 104.328125 3.695312 104.671875 3.4375 C 105.023438 3.175781 105.378906 2.867188 105.734375 2.515625 L 106.421875 3.296875 C 105.609375 4.222656 104.550781 5.101562 103.25 5.9375 C 101.945312 6.78125 100.601562 7.203125 99.21875 7.203125 Z M 99.21875 7.203125 "/></g></g></g><g fill="#60795e" fill-opacity="1"><g transform="translate(254.712022, 213.805047)"><g><path d="M 51.3125 26 C 51.050781 26 50.851562 25.96875 50.71875 25.90625 C 50.582031 25.84375 50.445312 25.773438 50.3125 25.703125 C 51.050781 25.171875 51.421875 24.441406 51.421875 23.515625 C 51.421875 22.710938 51.171875 21.894531 50.671875 21.0625 C 50.171875 20.238281 49.65625 19.59375 49.125 19.125 C 48.519531 18.59375 47.867188 17.992188 47.171875 17.328125 C 46.484375 16.671875 45.875 15.710938 45.34375 14.453125 C 44.9375 13.648438 44.734375 12.785156 44.734375 11.859375 C 44.734375 10.929688 44.929688 10.050781 45.328125 9.21875 C 45.734375 8.382812 46.300781 7.738281 47.03125 7.28125 C 46.5625 6.8125 45.910156 6.410156 45.078125 6.078125 C 44.253906 5.742188 43.378906 5.578125 42.453125 5.578125 L 41.546875 5.578125 C 40.617188 5.578125 39.753906 5.675781 38.953125 5.875 C 37.828125 6.28125 36.679688 6.613281 35.515625 6.875 C 34.359375 7.144531 33.210938 7.34375 32.078125 7.46875 C 32.015625 8.664062 32.097656 10.210938 32.328125 12.109375 C 32.566406 14.003906 33.082031 15.710938 33.875 17.234375 C 34.675781 18.765625 35.875 19.597656 37.46875 19.734375 L 37.46875 20.625 C 36 20.6875 34.765625 20.132812 33.765625 18.96875 C 32.773438 17.8125 32.015625 16.472656 31.484375 14.953125 C 31.285156 15.804688 30.9375 16.628906 30.4375 17.421875 C 29.9375 18.222656 29.253906 18.828125 28.390625 19.234375 C 28.328125 20.097656 27.863281 20.910156 27 21.671875 C 26.132812 22.429688 25.003906 22.8125 23.609375 22.8125 C 22.742188 22.8125 21.78125 22.613281 20.71875 22.21875 C 19.65625 21.820312 18.722656 21.289062 17.921875 20.625 C 17.128906 19.957031 16.632812 19.257812 16.4375 18.53125 L 16.4375 18.234375 C 16.4375 17.640625 16.570312 17.273438 16.84375 17.140625 C 16.96875 17.597656 17.210938 17.910156 17.578125 18.078125 C 17.953125 18.242188 18.335938 18.328125 18.734375 18.328125 C 19.597656 18.328125 20.328125 18.097656 20.921875 17.640625 C 21.390625 17.367188 21.921875 17.066406 22.515625 16.734375 C 23.117188 16.398438 23.914062 16.234375 24.90625 16.234375 C 25.632812 16.234375 26.332031 16.429688 27 16.828125 C 27.664062 17.234375 28.097656 17.800781 28.296875 18.53125 C 29.222656 18.0625 29.882812 17.144531 30.28125 15.78125 C 30.6875 14.425781 30.851562 13.316406 30.78125 12.453125 C 30.582031 11.523438 30.453125 10.644531 30.390625 9.8125 C 30.328125 8.976562 30.296875 8.265625 30.296875 7.671875 C 26.703125 7.804688 23.410156 7.238281 20.421875 5.96875 C 17.429688 4.707031 15.039062 2.734375 13.25 0.046875 C 11.457031 -2.640625 10.5625 -5.976562 10.5625 -9.96875 C 10.5625 -11.957031 10.8125 -14.097656 11.3125 -16.390625 C 11.8125 -18.679688 12.625 -21.125 13.75 -23.71875 C 15.28125 -27.238281 17.351562 -30.691406 19.96875 -34.078125 C 22.59375 -37.460938 25.335938 -40.582031 28.203125 -43.4375 C 26.867188 -43.96875 25.519531 -44.550781 24.15625 -45.1875 C 22.800781 -45.820312 21.492188 -46.46875 20.234375 -47.125 C 19.035156 -47.53125 17.835938 -47.796875 16.640625 -47.921875 C 14.847656 -47.921875 13.488281 -47.554688 12.5625 -46.828125 C 13.09375 -46.429688 13.488281 -45.914062 13.75 -45.28125 C 14.019531 -44.65625 14.15625 -43.976562 14.15625 -43.25 C 14.15625 -42.113281 13.921875 -41.179688 13.453125 -40.453125 C 12.859375 -39.390625 12.210938 -38.609375 11.515625 -38.109375 C 10.816406 -37.609375 10.203125 -37.160156 9.671875 -36.765625 C 9.140625 -36.429688 8.625 -35.882812 8.125 -35.125 C 7.625 -34.363281 7.375 -33.613281 7.375 -32.875 C 7.375 -32.28125 7.609375 -31.75 8.078125 -31.28125 C 7.941406 -31.15625 7.707031 -31.09375 7.375 -31.09375 C 7.039062 -31.09375 6.640625 -31.222656 6.171875 -31.484375 C 5.304688 -32.015625 4.675781 -32.925781 4.28125 -34.21875 C 3.882812 -35.519531 3.6875 -36.867188 3.6875 -38.265625 C 3.6875 -40.253906 4.019531 -41.976562 4.6875 -43.4375 C 5.28125 -44.769531 6.125 -45.785156 7.21875 -46.484375 C 8.320312 -47.179688 9.367188 -47.53125 10.359375 -47.53125 C 10.628906 -47.53125 10.863281 -47.507812 11.0625 -47.46875 C 11.257812 -47.4375 11.457031 -47.390625 11.65625 -47.328125 C 12.988281 -48.523438 14.550781 -49.125 16.34375 -49.125 L 16.640625 -49.125 C 14.910156 -50.320312 13.582031 -51.382812 12.65625 -52.3125 C 11.125 -53.96875 10.007812 -55.609375 9.3125 -57.234375 C 8.613281 -58.867188 8.265625 -60.414062 8.265625 -61.875 C 8.265625 -64.601562 9.328125 -66.863281 11.453125 -68.65625 C 13.578125 -70.445312 16.367188 -71.34375 19.828125 -71.34375 C 22.015625 -71.34375 24.421875 -70.925781 27.046875 -70.09375 C 29.671875 -69.269531 32.410156 -67.894531 35.265625 -65.96875 C 35.472656 -65.96875 35.804688 -65.734375 36.265625 -65.265625 C 36.597656 -64.992188 37.066406 -64.859375 37.671875 -64.859375 C 38.398438 -64.859375 39.113281 -65.09375 39.8125 -65.5625 C 40.507812 -66.03125 41.085938 -66.492188 41.546875 -66.953125 C 42.546875 -67.890625 43.773438 -68.738281 45.234375 -69.5 C 46.691406 -70.257812 48.019531 -70.640625 49.21875 -70.640625 C 50.945312 -70.640625 52.273438 -70.15625 53.203125 -69.1875 C 54.140625 -68.226562 54.671875 -67.15625 54.796875 -65.96875 C 54.398438 -66.5625 53.671875 -66.859375 52.609375 -66.859375 C 51.546875 -66.859375 50.546875 -66.507812 49.609375 -65.8125 C 48.679688 -65.113281 47.851562 -64.429688 47.125 -63.765625 C 46.257812 -63.109375 45.378906 -62.492188 44.484375 -61.921875 C 43.585938 -61.359375 42.441406 -61.078125 41.046875 -61.078125 C 40.785156 -61.078125 40.535156 -61.078125 40.296875 -61.078125 C 40.066406 -61.078125 39.785156 -61.109375 39.453125 -61.171875 C 38.796875 -61.304688 38.117188 -61.625 37.421875 -62.125 C 36.722656 -62.625 36.140625 -63.207031 35.671875 -63.875 C 35.335938 -64.207031 34.972656 -64.570312 34.578125 -64.96875 C 34.179688 -65.363281 33.914062 -65.59375 33.78125 -65.65625 C 33.3125 -65.988281 32.828125 -66.285156 32.328125 -66.546875 C 31.835938 -66.816406 31.359375 -67.050781 30.890625 -67.25 C 31.085938 -67.050781 31.21875 -66.890625 31.28125 -66.765625 C 32.550781 -65.367188 33.1875 -63.804688 33.1875 -62.078125 C 33.1875 -60.941406 32.882812 -59.992188 32.28125 -59.234375 C 31.6875 -58.472656 30.957031 -58.09375 30.09375 -58.09375 C 29.488281 -58.09375 28.859375 -58.320312 28.203125 -58.78125 C 27.734375 -59.113281 27.5 -59.445312 27.5 -59.78125 C 27.5 -60.113281 27.734375 -60.210938 28.203125 -60.078125 C 28.734375 -59.953125 29.265625 -60.1875 29.796875 -60.78125 C 30.328125 -61.375 30.691406 -62.070312 30.890625 -62.875 C 30.953125 -63.132812 31 -63.414062 31.03125 -63.71875 C 31.070312 -64.019531 31.09375 -64.300781 31.09375 -64.5625 C 31.09375 -65.09375 31.023438 -65.625 30.890625 -66.15625 C 30.753906 -66.6875 30.519531 -67.1875 30.1875 -67.65625 C 26.738281 -69.25 23.617188 -70.046875 20.828125 -70.046875 C 17.972656 -70.046875 15.695312 -69.3125 14 -67.84375 C 12.300781 -66.382812 11.453125 -64.492188 11.453125 -62.171875 C 11.453125 -60.773438 11.785156 -59.3125 12.453125 -57.78125 C 13.117188 -56.257812 14.179688 -54.703125 15.640625 -53.109375 C 17.035156 -51.648438 18.894531 -50.1875 21.21875 -48.71875 C 23.539062 -47.257812 26.265625 -45.867188 29.390625 -44.546875 C 34.640625 -49.453125 40.550781 -53.414062 47.125 -56.4375 C 53.707031 -59.46875 60.453125 -60.984375 67.359375 -60.984375 C 72.535156 -60.984375 76.398438 -60.082031 78.953125 -58.28125 C 81.515625 -56.488281 82.796875 -54.363281 82.796875 -51.90625 C 82.796875 -49.78125 81.816406 -47.617188 79.859375 -45.421875 C 77.898438 -43.234375 74.925781 -41.410156 70.9375 -39.953125 C 68.6875 -39.085938 66.28125 -38.472656 63.71875 -38.109375 C 61.164062 -37.742188 58.554688 -37.5625 55.890625 -37.5625 C 50.910156 -37.5625 45.960938 -38.128906 41.046875 -39.265625 C 40.453125 -39.191406 39.921875 -39.039062 39.453125 -38.8125 C 38.992188 -38.582031 38.628906 -38.300781 38.359375 -37.96875 C 37.628906 -37.363281 37.265625 -36.597656 37.265625 -35.671875 C 37.265625 -35.273438 37.398438 -34.941406 37.671875 -34.671875 C 37.992188 -34.410156 38.125 -34.210938 38.0625 -34.078125 C 38 -33.941406 37.832031 -33.875 37.5625 -33.875 C 37.09375 -33.875 36.539062 -34.085938 35.90625 -34.515625 C 35.28125 -34.953125 34.96875 -35.601562 34.96875 -36.46875 C 34.96875 -37.332031 35.332031 -38.0625 36.0625 -38.65625 C 36.800781 -39.257812 37.664062 -39.660156 38.65625 -39.859375 C 37.789062 -40.054688 36.925781 -40.285156 36.0625 -40.546875 C 35.207031 -40.816406 34.410156 -41.082031 33.671875 -41.34375 C 31.742188 -39.289062 29.882812 -37.015625 28.09375 -34.515625 C 26.300781 -32.023438 24.675781 -29.421875 23.21875 -26.703125 C 23.21875 -26.640625 23.195312 -26.585938 23.15625 -26.546875 C 23.125 -26.515625 23.109375 -26.4375 23.109375 -26.3125 C 22.847656 -25.570312 22.632812 -24.785156 22.46875 -23.953125 C 22.300781 -23.128906 22.21875 -22.316406 22.21875 -21.515625 C 22.21875 -20.128906 22.46875 -18.835938 22.96875 -17.640625 C 23.46875 -16.441406 24.113281 -15.644531 24.90625 -15.25 L 25.3125 -15.046875 C 25.707031 -15.640625 26.253906 -16.085938 26.953125 -16.390625 C 27.648438 -16.691406 28.363281 -16.84375 29.09375 -16.84375 C 29.957031 -16.84375 30.65625 -16.707031 31.1875 -16.4375 C 32.113281 -16.101562 32.84375 -15.703125 33.375 -15.234375 C 33.90625 -14.773438 34.40625 -14.28125 34.875 -13.75 C 35.539062 -15.28125 36.253906 -16.757812 37.015625 -18.1875 C 37.773438 -19.613281 38.625 -20.925781 39.5625 -22.125 C 41.6875 -24.84375 43.894531 -26.816406 46.1875 -28.046875 C 48.476562 -29.273438 50.617188 -29.890625 52.609375 -29.890625 C 55.335938 -29.890625 57.578125 -28.957031 59.328125 -27.09375 C 61.085938 -25.238281 61.96875 -22.847656 61.96875 -19.921875 C 61.96875 -18.398438 61.671875 -16.722656 61.078125 -14.890625 C 60.484375 -13.066406 59.519531 -11.191406 58.1875 -9.265625 C 56.332031 -6.609375 54.09375 -4.097656 51.46875 -1.734375 C 48.84375 0.617188 46 2.554688 42.9375 4.078125 L 43.046875 4.1875 C 45.109375 4.382812 46.800781 5.25 48.125 6.78125 C 48.257812 6.707031 48.425781 6.671875 48.625 6.671875 C 48.820312 6.671875 48.988281 6.671875 49.125 6.671875 C 50.382812 6.671875 51.644531 7.148438 52.90625 8.109375 C 54.164062 9.078125 55.097656 10.425781 55.703125 12.15625 C 56.097656 13.21875 56.296875 14.578125 56.296875 16.234375 C 56.296875 18.097656 55.976562 19.957031 55.34375 21.8125 C 54.71875 23.675781 53.804688 24.941406 52.609375 25.609375 C 52.078125 25.867188 51.644531 26 51.3125 26 Z M 52.90625 -39.65625 C 59.21875 -39.65625 64.863281 -40.519531 69.84375 -42.25 C 73.164062 -43.375 75.722656 -44.882812 77.515625 -46.78125 C 79.304688 -48.675781 80.203125 -50.519531 80.203125 -52.3125 C 80.203125 -54.039062 79.253906 -55.582031 77.359375 -56.9375 C 75.472656 -58.300781 72.503906 -58.984375 68.453125 -58.984375 C 65.859375 -58.984375 62.984375 -58.46875 59.828125 -57.4375 C 56.671875 -56.40625 53.5 -55.0625 50.3125 -53.40625 C 47.125 -51.75 44.164062 -49.972656 41.4375 -48.078125 C 38.71875 -46.179688 36.5 -44.367188 34.78125 -42.640625 C 37.363281 -41.648438 40.21875 -40.90625 43.34375 -40.40625 C 46.46875 -39.90625 49.65625 -39.65625 52.90625 -39.65625 Z M 32.28125 5.375 C 35.40625 4.84375 38.476562 3.726562 41.5 2.03125 C 44.519531 0.34375 47.304688 -1.691406 49.859375 -4.078125 C 52.421875 -6.472656 54.535156 -8.96875 56.203125 -11.5625 C 57.265625 -13.15625 58.023438 -14.695312 58.484375 -16.1875 C 58.953125 -17.6875 59.1875 -19.066406 59.1875 -20.328125 C 59.1875 -22.648438 58.535156 -24.539062 57.234375 -26 C 55.941406 -27.46875 54.234375 -28.203125 52.109375 -28.203125 C 50.453125 -28.203125 48.625 -27.632812 46.625 -26.5 C 44.632812 -25.375 42.675781 -23.515625 40.75 -20.921875 C 38.820312 -18.265625 37.257812 -15.507812 36.0625 -12.65625 C 36.925781 -11.988281 37.859375 -11.65625 38.859375 -11.65625 C 39.722656 -11.65625 40.351562 -11.957031 40.75 -12.5625 C 40.945312 -12.351562 41.046875 -12.082031 41.046875 -11.75 C 41.046875 -10.488281 40.332031 -9.507812 38.90625 -8.8125 C 37.476562 -8.113281 35.9375 -7.632812 34.28125 -7.375 C 33.675781 -5.3125 33.222656 -3.203125 32.921875 -1.046875 C 32.628906 1.109375 32.414062 3.25 32.28125 5.375 Z M 30.484375 5.578125 C 30.554688 3.722656 30.757812 1.679688 31.09375 -0.546875 C 31.425781 -2.773438 31.921875 -5.019531 32.578125 -7.28125 C 31.316406 -7.28125 30.289062 -7.410156 29.5 -7.671875 C 27.832031 -8.203125 26.566406 -9.097656 25.703125 -10.359375 C 24.835938 -11.617188 24.539062 -12.78125 24.8125 -13.84375 C 24.8125 -13.976562 24.878906 -14.179688 25.015625 -14.453125 L 24.90625 -14.453125 C 24.238281 -14.453125 23.503906 -15.015625 22.703125 -16.140625 C 21.910156 -17.265625 21.414062 -18.425781 21.21875 -19.625 C 21.15625 -19.894531 21.125 -20.328125 21.125 -20.921875 C 21.125 -21.253906 21.125 -21.585938 21.125 -21.921875 C 21.125 -22.253906 21.15625 -22.550781 21.21875 -22.8125 C 20.957031 -22.28125 20.707031 -21.734375 20.46875 -21.171875 C 20.238281 -20.609375 20.023438 -20.0625 19.828125 -19.53125 C 18.828125 -17.132812 18.109375 -14.890625 17.671875 -12.796875 C 17.242188 -10.710938 17.03125 -8.804688 17.03125 -7.078125 C 17.03125 -2.691406 18.289062 0.578125 20.8125 2.734375 C 23.34375 4.898438 26.566406 5.847656 30.484375 5.578125 Z M 30.484375 5.578125 "/></g></g></g></svg>